<svg width="1412" height="843" viewBox="0 0 1412 843" fill="none" xmlns="http://www.w3.org/2000/svg">
<rect width="1412" height="843" fill="#806767"/>
<g id="star1">
<g id="Ellipse 14">
<path id="Ellipse 14_2" opacity="0.998" d="M1090.5 212C1092.43 212 1094 210.657 1094 209C1094 207.343 1092.43 206 1090.5 206C1088.57 206 1087 207.343 1087 209C1087 210.657 1088.57 212 1090.5 212Z" fill="#F2F2F2"/>
</g>
</g>
<g id="Ellipse 23">
<g id="star2">
<path id="Ellipse 14_3" opacity="0.998" d="M1137.5 193C1139.43 193 1141 191.657 1141 190C1141 188.343 1139.43 187 1137.5 187C1135.57 187 1134 188.343 1134 190C1134 191.657 1135.57 193 1137.5 193Z" fill="#F2F2F2"/>
</g>
</g>
<g id="Ellipse 22" clip-path="url(#clip0)">
<path id="Ellipse 22_2" opacity="0.998" d="M943.47 167.94C954.775 167.94 963.94 158.775 963.94 147.47C963.94 136.165 954.775 127 943.47 127C932.165 127 923 136.165 923 147.47C923 158.775 932.165 167.94 943.47 167.94Z" fill="#178445"/>
</g>
<path id="Path 258" d="M1213.13 287.003V396.026C1213.13 484.899 1143.75 556.94 1058.18 556.935H773V447.912C773 389.654 802.816 338.622 847.47 310.384C855.142 305.525 863.236 301.365 871.653 297.955C876.589 295.952 881.63 294.216 886.753 292.755C886.853 292.721 886.953 292.691 887.053 292.666C888.564 292.237 890.085 291.832 891.616 291.452C891.702 291.427 891.782 291.408 891.868 291.388C901.289 289.056 910.915 287.646 920.609 287.178C921.754 287.124 922.9 287.078 924.055 287.055C924.469 287.04 924.887 287.03 925.31 287.03C926.185 287.01 927.064 287 927.948 287L1213.13 287.003Z" fill="#3A485D"/>
<g id="Group 65">
<path id="Path 170" d="M828.427 486.06H829.402V485.085H829.592V486.06H830.567V486.25H829.592V487.225H829.402V486.25H828.427V486.06Z" fill="#F2F2F2"/>
<path id="Path 177" opacity="0.998" d="M827.357 372.098H828.332V371.123H828.522V372.098H829.497V372.288H828.522V373.263H828.332V372.288H827.357V372.098Z" fill="#F2F2F2"/>
<path id="Path 196" d="M1065.56 511.516C1065.56 511.516 1078.47 510.737 1076.95 519.785C1077.03 520.244 1076.96 520.716 1076.76 521.133C1076.55 521.551 1076.22 521.893 1075.81 522.109C1075.81 522.109 1075.78 521.437 1074.48 521.666C1074.02 521.744 1073.55 521.766 1073.08 521.733C1072.45 521.69 1071.84 521.441 1071.36 521.025V521.025C1071.36 521.025 1067.74 519.525 1066.32 513.596C1066.32 513.596 1065.28 512.301 1065.32 511.968L1067.5 512.884C1067.08 513.788 1067.03 514.816 1067.34 515.76C1067.34 515.76 1067.41 512.942 1067.83 513.012C1067.92 513.027 1068.96 513.559 1068.96 513.559C1068.96 513.559 1067.68 516.307 1068.66 518.286C1068.66 518.286 1068.29 514.912 1069.37 513.754L1070.9 514.654C1070.9 514.654 1069.4 517.482 1070.42 519.787C1070.42 519.787 1070.16 516.248 1071.22 514.871L1072.61 515.955C1072.61 515.955 1071.21 518.743 1072.06 520.655C1072.06 520.655 1072.17 516.536 1072.91 516.224C1073.44 516.67 1073.91 517.183 1074.31 517.751C1074.31 517.751 1073.34 519.772 1073.94 520.841C1073.94 520.841 1074.31 518.093 1074.61 518.093C1075.24 519.018 1075.7 520.054 1075.95 521.147C1075.89 519.995 1075.53 518.878 1074.91 517.907C1075.6 518.038 1076.25 518.372 1076.76 518.866C1076.76 518.866 1076.57 517.58 1074.61 517.466C1074.24 516.931 1073.81 516.44 1073.34 516.003C1074.4 515.913 1075.46 516.037 1076.48 516.366C1076.48 516.366 1075.43 515.145 1072.98 515.703L1071.6 514.582C1072.82 514.396 1074.05 514.408 1075.27 514.619C1075.27 514.619 1074.01 513.547 1071.23 514.329L1069.74 513.437C1070.89 513.185 1072.06 513.082 1073.24 513.132C1071.97 512.652 1070.56 512.674 1069.3 513.193L1068.23 512.714C1068.23 512.714 1069.84 512.409 1070.31 512.348C1070.78 512.287 1070.81 512.168 1070.81 512.168C1069.79 511.998 1068.74 512.115 1067.79 512.504C1067.02 512.242 1066.27 511.912 1065.56 511.516Z" fill="#6C63FF"/>
<path id="Ellipse 23_2" opacity="0.1" d="M1074.45 524.442C1079.5 524.442 1083.59 523.75 1083.59 522.897C1083.59 522.044 1079.5 521.352 1074.45 521.352C1069.41 521.352 1065.32 522.044 1065.32 522.897C1065.32 523.75 1069.41 524.442 1074.45 524.442Z" fill="#6C63FF"/>
<path id="Path 197" d="M782.147 490.968C782.147 490.968 789.427 490.528 788.56 495.628C788.604 495.887 788.565 496.154 788.449 496.389C788.333 496.625 788.145 496.818 787.913 496.941C787.913 496.941 787.913 496.562 787.168 496.691C786.906 496.734 786.641 496.746 786.377 496.728C786.019 496.703 785.679 496.563 785.409 496.328V496.328C785.409 496.328 783.363 495.482 782.566 492.138C782.566 492.138 781.98 491.408 782.001 491.222L783.222 491.747C782.987 492.257 782.955 492.838 783.133 493.371C783.133 493.371 783.173 491.78 783.408 491.817C783.457 491.817 784.049 492.122 784.049 492.122C783.651 492.954 783.586 493.907 783.869 494.785C783.869 494.785 783.669 492.885 784.269 492.232L785.136 492.732C784.665 493.625 784.567 494.667 784.864 495.632C784.864 495.632 784.714 493.632 785.316 492.859L786.101 493.47C785.674 494.285 785.565 495.23 785.796 496.121C785.796 496.121 785.86 493.797 786.275 493.621C786.572 493.872 786.838 494.158 787.066 494.473C787.066 494.473 786.523 495.612 786.858 496.217C786.858 496.217 787.066 494.669 787.237 494.663C787.591 495.187 787.846 495.772 787.988 496.388C787.956 495.737 787.754 495.105 787.402 494.556C787.795 494.631 788.158 494.82 788.446 495.099C788.446 495.099 788.339 494.372 787.225 494.308C787.018 494.007 786.777 493.73 786.507 493.484C787.104 493.432 787.706 493.5 788.278 493.684C788.011 493.452 787.688 493.296 787.342 493.23C786.995 493.165 786.637 493.193 786.305 493.311L785.533 492.679C786.217 492.574 786.914 492.581 787.597 492.7C787.258 492.493 786.876 492.371 786.481 492.342C786.085 492.313 785.689 492.379 785.325 492.535L784.482 492.035C785.129 491.893 785.792 491.837 786.455 491.867C785.737 491.595 784.943 491.607 784.235 491.9L783.624 491.628C783.624 491.628 784.54 491.451 784.794 491.428C785.048 491.405 785.075 491.328 785.075 491.328C784.501 491.233 783.913 491.298 783.375 491.517C782.95 491.371 782.539 491.187 782.147 490.968V490.968Z" fill="#6C63FF"/>
<path id="Ellipse 24" opacity="0.1" d="M787.161 498.254C790.005 498.254 792.312 497.864 792.312 497.384C792.312 496.903 790.005 496.514 787.161 496.514C784.316 496.514 782.01 496.903 782.01 497.384C782.01 497.864 784.316 498.254 787.161 498.254Z" fill="#6C63FF"/>
<path id="Path 198" d="M797.116 504.853C797.116 504.853 805.904 504.325 804.854 510.487C804.907 510.8 804.86 511.122 804.72 511.406C804.579 511.691 804.352 511.924 804.072 512.072C804.072 512.072 804.072 511.614 803.156 511.767C802.84 511.82 802.519 511.836 802.2 511.813C801.769 511.783 801.359 511.614 801.033 511.331V511.331C801.033 511.331 798.563 510.311 797.604 506.274C797.604 506.274 796.892 505.392 796.92 505.165L798.404 505.8C798.119 506.415 798.08 507.114 798.294 507.757C798.294 507.757 798.343 505.836 798.627 505.882C798.685 505.882 799.4 506.252 799.4 506.252C798.921 507.258 798.845 508.409 799.186 509.47C799.186 509.47 798.936 507.17 799.671 506.389L800.715 507C800.147 508.077 800.028 509.336 800.385 510.5C800.385 510.5 800.208 508.091 800.935 507.141L801.879 507.877C801.879 507.877 800.923 509.777 801.506 511.077C801.506 511.077 801.582 508.277 802.086 508.063C802.445 508.365 802.765 508.711 803.039 509.092C803.039 509.092 802.382 510.469 802.789 511.192C802.789 511.192 803.039 509.323 803.244 509.314C803.673 509.948 803.984 510.655 804.16 511.4C804.117 510.617 803.872 509.859 803.448 509.2C803.924 509.29 804.363 509.518 804.712 509.854C804.712 509.854 804.584 508.981 803.246 508.904C802.997 508.539 802.707 508.203 802.382 507.904C803.103 507.843 803.83 507.927 804.519 508.151C804.197 507.872 803.807 507.683 803.388 507.604C802.97 507.525 802.538 507.559 802.137 507.702L801.202 506.939C802.029 506.811 802.872 506.819 803.697 506.963C803.287 506.716 802.824 506.569 802.347 506.534C801.869 506.499 801.39 506.578 800.949 506.763L799.932 506.152C800.714 505.982 801.514 505.915 802.314 505.952C801.447 505.625 800.488 505.641 799.633 505.995L798.906 505.668C798.906 505.668 800.006 505.451 800.32 505.418C800.634 505.385 800.659 505.296 800.659 505.296C799.966 505.181 799.254 505.26 798.604 505.525C798.088 505.347 797.59 505.122 797.116 504.853V504.853Z" fill="#6C63FF"/>
<path id="Ellipse 25" opacity="0.1" d="M803.171 513.65C806.606 513.65 809.391 513.18 809.391 512.6C809.391 512.02 806.606 511.55 803.171 511.55C799.735 511.55 796.951 512.02 796.951 512.6C796.951 513.18 799.735 513.65 803.171 513.65Z" fill="#6C63FF"/>
<path id="Ellipse 26" opacity="0.1" d="M837.625 510.221C853.196 510.221 865.819 508.251 865.819 505.821C865.819 503.391 853.196 501.421 837.625 501.421C822.054 501.421 809.431 503.391 809.431 505.821C809.431 508.251 822.054 510.221 837.625 510.221Z" fill="#6C63FF"/>
<path id="Ellipse 27" opacity="0.1" d="M926.843 521.673C944.34 521.673 958.524 520.25 958.524 518.494C958.524 516.738 944.34 515.315 926.843 515.315C909.346 515.315 895.162 516.738 895.162 518.494C895.162 520.25 909.346 521.673 926.843 521.673Z" fill="#6C63FF"/>
<path id="Ellipse 28" opacity="0.1" d="M1022.83 518.515C1036.11 518.515 1046.87 517.851 1046.87 517.031C1046.87 516.211 1036.11 515.547 1022.83 515.547C1009.55 515.547 998.78 516.211 998.78 517.031C998.78 517.851 1009.55 518.515 1022.83 518.515Z" fill="#6C63FF"/>
<path id="Path 200" opacity="0.9" d="M923.149 452.995V424.527H919.273V416.027H947.05V424.527H943.174V452.996C949.347 455.339 954.504 459.772 957.747 465.524C960.99 471.276 962.114 477.983 960.923 484.478C959.732 490.972 956.302 496.844 951.229 501.071C946.156 505.299 939.762 507.614 933.159 507.614C926.555 507.614 920.161 505.299 915.088 501.071C910.016 496.844 906.585 490.972 905.395 484.478C904.204 477.983 905.327 471.276 908.57 465.524C911.813 459.772 916.97 455.339 923.144 452.996L923.149 452.995Z" fill="#96B7FE"/>
<path id="Rectangle 84" opacity="0.1" d="M943.088 424.639H923.106V425.021H943.088V424.639Z" fill="black"/>
<path id="Path 201" d="M948.845 478.697C948.845 478.697 931.889 478.397 923.411 474.156C914.933 469.915 910.088 473.701 910.544 476.276C911 478.851 913.419 483.844 923.108 484.457C932.797 485.07 948.845 478.697 948.845 478.697Z" fill="#6C63FF"/>
<path id="Path 202" opacity="0.1" d="M948.845 478.697C948.845 478.697 931.889 478.397 923.411 474.156C914.933 469.915 910.088 473.701 910.544 476.276C911 478.851 913.419 483.844 923.108 484.457C932.797 485.07 948.845 478.697 948.845 478.697Z" fill="black"/>
<path id="Path 203" d="M956.106 475.976C956.106 475.976 957.918 501.105 934.157 501.559C910.396 502.013 910.542 476.274 910.542 476.274C910.542 476.274 919.318 485.81 940.061 477.938C940.061 477.944 950.808 475.067 956.106 475.976Z" fill="#6C63FF"/>
<path id="Path 204" opacity="0.1" d="M910.619 476.364C911.093 482.153 914.171 500.274 934.148 499.891C953.731 499.521 955.948 482.401 956.123 476.378C956.232 479.61 956.135 501.136 934.153 501.557C910.386 502.003 910.538 476.271 910.538 476.271C910.538 476.271 910.567 476.309 910.619 476.364Z" fill="black"/>
<path id="Ellipse 29" opacity="0.3" d="M928.611 434.613C932.107 434.613 934.941 431.779 934.941 428.283C934.941 424.787 932.107 421.953 928.611 421.953C925.115 421.953 922.281 424.787 922.281 428.283C922.281 431.779 925.115 434.613 928.611 434.613Z" fill="#6C63FF"/>
<g id="bubbel1">
<path id="Ellipse 30" opacity="0.3" d="M924.996 406.878C927.159 406.878 928.914 405.124 928.914 402.96C928.914 400.796 927.159 399.042 924.996 399.042C922.832 399.042 921.078 400.796 921.078 402.96C921.078 405.124 922.832 406.878 924.996 406.878Z" fill="#6C63FF"/>
</g>
<g id="bubbel3">
<g id="Group 66" opacity="0.2">
<path id="Ellipse 31" opacity="0.3" d="M933.738 384.266C935.901 384.266 937.656 382.512 937.656 380.348C937.656 378.184 935.901 376.43 933.738 376.43C931.574 376.43 929.82 378.184 929.82 380.348C929.82 382.512 931.574 384.266 933.738 384.266Z" fill="#6C63FF"/>
</g>
</g>
<path id="Path 205" opacity="0.2" d="M952.861 467.511C953.025 468.811 952.992 470.438 951.83 471.045C952.804 470.536 948.811 464.768 949.377 463.59C950.589 461.076 952.712 466.303 952.861 467.511Z" fill="white"/>
<path id="Ellipse 32" opacity="0.3" d="M938.052 410.581C939.754 410.581 941.135 409.201 941.135 407.498C941.135 405.795 939.754 404.415 938.052 404.415C936.349 404.415 934.969 405.795 934.969 407.498C934.969 409.201 936.349 410.581 938.052 410.581Z" fill="#6C63FF"/>
<path id="Ellipse 33" opacity="0.3" d="M917.915 303.812C920.514 303.812 922.621 301.705 922.621 299.106C922.621 296.507 920.514 294.4 917.915 294.4C915.316 294.4 913.209 296.507 913.209 299.106C913.209 301.705 915.316 303.812 917.915 303.812Z" fill="#6C63FF"/>
<path id="Ellipse 34" opacity="0.3" d="M931.479 288.892C932.83 288.892 933.925 287.797 933.925 286.446C933.925 285.095 932.83 284 931.479 284C930.128 284 929.033 285.095 929.033 286.446C929.033 287.797 930.128 288.892 931.479 288.892Z" fill="#6C63FF"/>
<path id="Path 206" opacity="0.9" d="M971.036 363.93H996.466V371.472H992.591V430.314C992.591 432.659 991.659 434.908 990.001 436.566C988.343 438.224 986.094 439.155 983.749 439.155C981.404 439.155 979.155 438.224 977.497 436.566C975.839 434.908 974.908 432.659 974.908 430.314V371.472H971.036V363.93Z" fill="#96B7FE"/>
<path id="Path 207" d="M986.7 382.566C986.7 382.566 980.407 380.318 978.655 381.916C978.655 381.916 981.203 385.662 983.555 385.516C985.907 385.37 986.7 382.566 986.7 382.566Z" fill="#6C63FF"/>
<path id="Path 208" opacity="0.1" d="M986.7 382.566C986.7 382.566 980.407 380.318 978.655 381.916C978.655 381.916 981.203 385.662 983.555 385.516C985.907 385.37 986.7 382.566 986.7 382.566Z" fill="black"/>
<path id="Path 209" d="M978.658 381.923V424.63C978.659 426.06 979.228 427.432 980.239 428.443C981.251 429.455 982.622 430.024 984.053 430.025V430.025C985.483 430.024 986.855 429.455 987.866 428.443C988.877 427.432 989.446 426.06 989.448 424.63V381.923C987.726 381.545 985.924 381.831 984.404 382.723C981.956 384.222 978.658 381.923 978.658 381.923Z" fill="#6C63FF"/>
<path id="Rectangle 85" opacity="0.1" d="M992.594 369.187H974.912V369.535H992.594V369.187Z" fill="black"/>
<path id="Path 210" opacity="0.1" d="M984.048 427.431C984.757 427.432 985.46 427.293 986.115 427.021C986.771 426.75 987.366 426.353 987.868 425.851C988.369 425.349 988.767 424.754 989.038 424.098C989.309 423.443 989.448 422.74 989.448 422.031V424.731C989.446 426.161 988.877 427.532 987.866 428.544C986.854 429.555 985.483 430.124 984.053 430.125V430.125C982.622 430.124 981.251 429.555 980.24 428.544C979.228 427.532 978.659 426.161 978.658 424.731V422.031C978.658 423.461 979.225 424.833 980.236 425.846C981.246 426.858 982.617 427.428 984.048 427.431V427.431Z" fill="black"/>
<path id="Ellipse 35" opacity="0.3" d="M984.051 377.729C984.658 377.729 985.15 377.237 985.15 376.63C985.15 376.023 984.658 375.531 984.051 375.531C983.444 375.531 982.952 376.023 982.952 376.63C982.952 377.237 983.444 377.729 984.051 377.729Z" fill="#6C63FF"/>
<path id="Ellipse 36" opacity="0.3" d="M980.455 373.434C980.841 373.434 981.155 373.121 981.155 372.734C981.155 372.347 980.841 372.034 980.455 372.034C980.068 372.034 979.755 372.347 979.755 372.734C979.755 373.121 980.068 373.434 980.455 373.434Z" fill="#6C63FF"/>
<path id="Ellipse 37" opacity="0.3" d="M985.35 372.036C985.736 372.036 986.05 371.723 986.05 371.336C986.05 370.949 985.736 370.636 985.35 370.636C984.963 370.636 984.65 370.949 984.65 371.336C984.65 371.723 984.963 372.036 985.35 372.036Z" fill="#6C63FF"/>
<path id="Path 211" opacity="0.2" d="M991.224 390.648C991.391 391.975 991.358 393.635 990.172 394.254C991.172 393.735 987.091 387.854 987.672 386.646C988.909 384.085 991.072 389.417 991.224 390.648Z" fill="white"/>
<path id="Ellipse 38" opacity="0.3" d="M1018.52 354.871C1021.49 354.871 1023.89 352.466 1023.89 349.5C1023.89 346.534 1021.49 344.129 1018.52 344.129C1015.56 344.129 1013.15 346.534 1013.15 349.5C1013.15 352.466 1015.56 354.871 1018.52 354.871Z" fill="#6C63FF"/>
<path id="Ellipse 39" opacity="0.3" d="M1034.64 344.284C1036.84 344.284 1038.63 342.496 1038.63 340.29C1038.63 338.084 1036.84 336.296 1034.64 336.296C1032.43 336.296 1030.64 338.084 1030.64 340.29C1030.64 342.496 1032.43 344.284 1034.64 344.284Z" fill="#6C63FF"/>
<path id="Ellipse 40" opacity="0.3" d="M1023.13 331.623C1024.27 331.623 1025.2 330.693 1025.2 329.547C1025.2 328.4 1024.27 327.471 1023.13 327.471C1021.98 327.471 1021.05 328.4 1021.05 329.547C1021.05 330.693 1021.98 331.623 1023.13 331.623Z" fill="#6C63FF"/>
<path id="Path 212" d="M810.029 421.816C810.029 421.816 814.716 398.505 812.924 395.604C812.924 395.604 812.86 392.904 812.967 389.472V389.072C812.653 389.286 812.324 389.478 811.984 389.646C810.332 390.498 808.433 390.743 806.619 390.339L808.045 388.757C808.42 388.412 808.687 387.965 808.814 387.471C808.833 386.989 808.728 386.511 808.509 386.082C807.162 382.682 807.08 378.393 809.688 375.794C811.88 373.608 812.418 370.786 814.788 368.794C816.529 367.331 817.488 365.188 818.388 363.12C819.201 361.39 819.86 359.592 820.358 357.746C820.7 356.296 820.834 354.796 821.305 353.379C821.502 352.654 821.845 351.977 822.311 351.388C822.778 350.799 823.359 350.311 824.02 349.953C824.528 349.776 825.021 349.557 825.495 349.3C826.033 348.848 826.492 348.309 826.854 347.706C828.992 344.863 836.198 346.536 839.606 347.691C840.531 347.983 841.388 348.459 842.125 349.091L842.095 349.039L842.009 348.914C842.381 349.216 842.702 349.574 842.962 349.977C843.378 350.805 843.751 351.654 844.08 352.521C844.58 353.529 847.36 356.341 846.166 357.474C846.084 357.55 845.99 357.612 845.888 357.657C845.442 357.839 844.953 357.888 844.48 357.798C844.498 357.838 844.517 357.877 844.532 357.917C844.937 358.917 845.145 359.986 845.143 361.065C845.122 363.324 844.206 365.482 842.594 367.066C840.983 368.649 838.809 369.527 836.55 369.508C835.657 369.51 834.769 369.375 833.918 369.108C833.897 369.215 833.878 369.322 833.86 369.429C833.863 369.474 833.856 369.519 833.839 369.56L833.989 369.771L834.014 369.731L838.469 375.96C839.15 376.436 843.069 379.276 843.285 381.405C843.517 383.735 843.749 386.465 843.749 386.465L843.779 387.048C843.973 387.21 844.2 387.329 844.445 387.395C844.69 387.462 844.946 387.475 845.196 387.433C846.585 387.204 846.585 392.551 846.585 392.551C846.585 392.551 847.501 393.403 848.145 392.664C848.789 391.925 850.46 394.426 850.46 394.426L860.992 394.881H861.233L861.801 393.122C861.863 392.94 861.993 392.79 862.164 392.702C862.335 392.615 862.533 392.597 862.717 392.652C862.761 392.664 862.804 392.682 862.845 392.704L862.882 392.728C862.908 392.743 862.932 392.76 862.955 392.78C862.969 392.79 862.983 392.801 862.995 392.814C863.016 392.832 863.035 392.851 863.053 392.872C863.064 392.885 863.074 392.898 863.084 392.912L863.102 392.93C863.167 393.021 863.209 393.125 863.227 393.236C863.244 393.346 863.235 393.459 863.202 393.565L862.713 395.073C864.744 395.482 866.823 396.633 865.128 399.809L873.715 398.224L870.936 400.554L856.584 403.516C856.773 403.858 856.648 404.35 856.056 405.043C853.506 408.043 848.846 408.854 846.975 409.068C846.483 410.171 845.868 411.215 845.143 412.18L845.308 415.166C845.308 415.166 850.047 437.943 850.918 439.1C850.487 438.6 850.094 438.069 849.742 437.512C851.119 442.193 853.042 448.6 853.542 449.559C854.354 451.086 855.105 457.291 854.18 457.691C853.432 457.793 852.674 457.785 851.929 457.667V458.18L851.981 477.647C851.981 477.647 851.749 489.59 852.387 490.726C852.846 491.849 853.12 493.039 853.196 494.25C853.196 494.25 855.755 498.962 857.776 500.855L857.822 500.895L857.886 500.449C857.886 500.449 860.329 503.521 865.697 503.349C865.697 503.349 868.937 505.449 864.133 505.566C859.329 505.683 853.198 505.395 853.198 505.395C853.198 505.395 848.923 498.857 845.329 499.709V504.656H844.229V499.666C843.719 499.33 843.283 498.894 842.947 498.384C842.611 497.874 842.383 497.302 842.275 496.701C842.18 496.083 842.248 495.452 842.473 494.868C842.697 494.285 843.07 493.771 843.555 493.376C843.772 493.179 843.946 492.938 844.067 492.67C844.187 492.403 844.251 492.113 844.255 491.819L844.295 491.853C844.301 491.751 844.314 491.649 844.335 491.548C844.64 488.989 845.04 483.725 843.648 479.822C841.739 474.475 841.159 467.03 842.548 462.593C842.995 461.177 843.363 459.736 843.648 458.278C843.682 458.092 843.715 457.918 843.743 457.753C842.792 457.883 841.85 458.076 840.925 458.33C837.7 459.216 830.656 459.38 824.64 459.33C824.625 459.495 824.606 459.666 824.588 459.84C824.477 461.04 824.25 462.226 823.91 463.382C823.159 465.66 822.81 475.664 822.81 475.664C822.81 475.664 821.836 483.894 822.367 487.246C822.672 489.109 822.929 490.978 823.097 492.855V492.892C823.097 492.892 824.691 497.439 825.845 499.915C825.875 499.979 825.903 500.04 825.934 500.101C826.246 500.13 826.554 500.197 826.85 500.301C826.85 500.301 828.41 503.428 829.974 503.941C831.538 504.454 831.015 506.158 827.485 505.532C823.955 504.906 818.63 504.396 818.63 504.396L818.398 501.211L817.314 499.855L817.589 503.031L816.432 502.805L816.585 498.939L814.811 496.719C814.811 496.719 812.673 494.814 815.852 491.064V491.143C815.886 491.088 815.919 491.033 815.952 490.981V490.963C816.477 490.145 816.899 488.621 816.129 485.915C814.739 481.029 813.929 476.592 813.929 476.592C813.929 476.592 810.823 464.71 814.558 459.085H814.39C814.773 458.293 815.044 457.452 815.196 456.585C815.214 456.485 815.23 456.374 815.248 456.28C812.599 456.202 809.99 455.613 807.565 454.546C807.602 454.511 808.929 426.308 810.029 421.816ZM845.094 402.151V402.206L845.665 402.233L845.094 402.151ZM847.039 402.42C847.132 402.44 847.22 402.482 847.295 402.542C847.538 402.888 847.691 403.289 847.741 403.709L848.627 403.509C848.627 403.509 849.238 403.378 850.154 403.231L850.578 402.807C849.4 402.695 848.191 402.563 847.04 402.42H847.039Z" fill="url(#paint0_linear)"/>
<path id="Path 213" d="M817.74 498.963L818.079 502.988L816.946 502.759L817.117 498.398L817.74 498.963Z" fill="#1D2366"/>
<path id="Path 214" d="M843.577 479.868C844.942 483.755 844.551 489.004 844.246 491.554C844.133 492.498 844.029 493.081 844.029 493.081C844.029 493.081 846.069 497.729 846.24 497.9C846.411 498.071 852.25 501.632 852.25 501.632L856.33 504.011C856.33 504.011 860.468 502.197 858.468 501.568C858.063 501.405 857.698 501.156 857.399 500.838C855.42 498.951 852.913 494.257 852.913 494.257C852.838 493.052 852.571 491.866 852.122 490.745C851.499 489.612 851.722 477.712 851.722 477.712L851.67 458.312V455.781L843.908 455.839C843.857 456.698 843.745 457.552 843.572 458.395C843.292 459.847 842.931 461.283 842.491 462.695C841.143 467.125 841.708 474.539 843.577 479.868Z" fill="#FFB0B1"/>
<path id="Path 215" opacity="0.1" d="M844.032 493.082C844.032 493.082 846.072 497.73 846.243 497.901C846.414 498.072 852.249 501.633 852.249 501.633L856.329 504.012C856.329 504.012 860.467 502.198 858.467 501.569C858.062 501.406 857.697 501.157 857.398 500.839L857.221 502.079L855.859 502.021L844.245 491.555C844.135 492.495 844.032 493.082 844.032 493.082Z" fill="black"/>
<path id="Path 216" d="M844.172 491.823L855.872 502.364L857.234 502.419L857.515 500.437C857.515 500.437 859.897 503.491 865.167 503.326C865.167 503.326 868.34 505.426 863.64 505.537C858.94 505.648 852.928 505.366 852.928 505.366C852.928 505.366 848.735 498.849 845.228 499.701V504.63H844.144V499.643C843.642 499.305 843.214 498.869 842.886 498.362C842.557 497.855 842.335 497.286 842.232 496.69C842.138 496.076 842.204 495.449 842.423 494.868C842.642 494.287 843.008 493.773 843.484 493.374C843.697 493.176 843.868 492.936 843.986 492.669C844.104 492.402 844.165 492.114 844.168 491.823H844.172Z" fill="#1D2366"/>
<path id="Path 217" d="M816.662 485.93C817.416 488.63 817.004 490.144 816.491 490.959V490.977C815.823 491.986 815.36 493.115 815.126 494.302L815.077 494.559L820.403 502.321L823.292 503.454C823.292 503.454 827.94 501.869 827.092 501.414C826.68 500.977 826.368 500.456 826.176 499.887C825.037 497.444 823.476 492.906 823.476 492.906V492.866C823.314 490.994 823.052 489.131 822.761 487.275C822.242 483.937 823.195 475.735 823.195 475.735C823.195 475.735 823.534 465.765 824.273 463.496C824.605 462.343 824.827 461.161 824.936 459.966C825.089 458.54 825.122 457.377 825.122 457.377C825.122 457.377 822.068 453.126 816.453 457.716C816.006 458.084 815.612 458.513 815.283 458.989C811.408 464.489 814.526 476.642 814.526 476.642C814.526 476.642 815.303 481.059 816.662 485.93Z" fill="#FFB0B1"/>
<path id="Path 218" opacity="0.1" d="M815.078 494.544L820.404 502.306L823.293 503.439C823.293 503.439 827.941 501.854 827.093 501.399C826.681 500.962 826.369 500.441 826.177 499.872C825.564 499.911 824.971 500.101 824.45 500.425C823.929 500.749 823.496 501.197 823.191 501.729L820.699 501.335C820.699 501.335 817.41 494.873 816.674 494.48C815.938 494.087 816.561 491.53 816.561 491.53V490.88L816.503 490.95V490.968C815.831 491.979 815.364 493.112 815.129 494.303L815.078 494.544Z" fill="black"/>
<path id="Path 219" d="M823.011 501.91C823.397 501.194 824.024 500.637 824.78 500.337C825.536 500.037 826.373 500.012 827.146 500.267C827.146 500.267 828.673 503.385 830.199 503.895C831.725 504.405 831.219 506.103 827.756 505.48C824.293 504.857 819.087 504.347 819.087 504.347L818.861 501.174L815.349 496.697C815.349 496.697 813.249 494.797 816.369 491.06V491.71C816.369 491.71 815.758 494.26 816.482 494.657C817.206 495.054 820.504 501.512 820.504 501.512L823.011 501.91Z" fill="#1D2366"/>
<path id="Path 220" opacity="0.1" d="M843.919 455.843C843.869 456.702 843.756 457.556 843.583 458.399C846.271 458.064 848.988 458.035 851.683 458.314V455.785L843.919 455.843Z" fill="black"/>
<path id="Path 221" opacity="0.1" d="M814.964 459.696C814.964 459.696 819.508 459.916 824.919 459.962C825.072 458.536 825.105 457.372 825.105 457.372C825.105 457.372 822.051 453.121 816.436 457.711C815.989 458.079 815.595 458.508 815.266 458.984C815.177 459.226 815.077 459.464 814.964 459.696V459.696Z" fill="black"/>
<path id="Path 222" d="M814.965 459.187C814.965 459.187 834.853 460.149 840.921 458.451C846.989 456.753 852.989 458.222 853.896 457.825C854.803 457.428 854.064 451.254 853.285 449.725C852.506 448.196 848.127 432.725 848.127 432.725L843.933 410.851L839.511 409.63L839.206 409.545L831.506 407.407L825.86 405.85C825.86 405.85 814.641 449.65 815.606 452.876C815.955 454.113 816.011 455.414 815.768 456.676C815.618 457.546 815.347 458.391 814.965 459.187V459.187Z" fill="#1D2366"/>
<path id="Path 223" d="M858.537 395.891C858.537 395.891 862.507 400.142 859.502 402.52C856.497 404.898 854.515 402.749 854.515 402.749L858.537 395.891Z" fill="#C7DAF5"/>
<path id="Path 224" opacity="0.1" d="M858.537 395.891C858.537 395.891 862.507 400.142 859.502 402.52C856.497 404.898 854.515 402.749 854.515 402.749L858.537 395.891Z" fill="black"/>
<path id="Path 225" d="M826.437 367.902C826.437 367.902 826.901 368.342 827.603 369.002C828.603 369.933 830.08 371.302 831.392 372.443C833.224 374.025 834.705 375.191 834.171 374.193C833.637 373.195 833.737 371.478 834.003 369.863L834.058 369.542C834.279 368.356 834.573 367.184 834.937 366.033C833.52 364.184 831.998 362.418 830.378 360.744C829.767 360.185 829.349 359.944 829.328 360.338C829.132 361.352 828.825 362.342 828.412 363.288C828.394 363.325 828.378 363.364 828.363 363.401C828.033 364.247 827.663 365.129 827.337 365.884C826.84 367.037 826.437 367.902 826.437 367.902Z" fill="#FFB0B1"/>
<path id="Path 226" opacity="0.1" d="M828.367 363.393C828.643 364.877 829.312 366.259 830.304 367.396C831.297 368.532 832.577 369.382 834.01 369.855C834.235 368.559 834.547 367.28 834.945 366.026C834.945 366.026 829.421 358.887 829.335 360.326C829.116 361.378 828.792 362.406 828.367 363.393V363.393Z" fill="black"/>
<path id="Path 227" opacity="0.1" d="M834.55 371.768L833.836 370.768C833.836 370.768 833.363 373.657 831.619 372.383C829.875 371.109 829.787 381.971 829.787 381.971L831.662 409.936L845.177 409.127L844.795 395.615L843.268 388.815L839.485 378.915L837.219 375.645L834.55 371.768Z" fill="black"/>
<path id="Path 228" d="M829.796 382.137L831.488 407.421L831.665 410.099L839.201 409.65L839.506 409.632L845.189 409.293L844.807 395.778L843.28 388.978L839.497 379.078L837.222 375.805L834.544 371.939L833.829 370.931C833.829 370.931 833.356 373.823 831.612 372.546L831.578 372.522C829.878 371.428 829.796 382.137 829.796 382.137Z" fill="#1D2366"/>
<path id="Path 229" d="M843.07 386.598C843.248 386.981 843.539 387.3 843.903 387.512C844.268 387.725 844.689 387.822 845.11 387.789C846.472 387.563 846.469 392.889 846.469 392.889C846.469 392.889 847.385 393.738 847.996 393.002C848.607 392.266 850.262 394.758 850.262 394.758L860.574 395.213C860.574 395.213 855.993 397.308 856.891 403.656C856.891 403.656 841.318 402.691 840.798 401.213C840.278 399.735 843.07 386.598 843.07 386.598Z" fill="white"/>
<path id="Path 230" opacity="0.03" d="M843.07 386.598C843.248 386.981 843.539 387.3 843.903 387.512C844.268 387.725 844.689 387.822 845.11 387.789C846.472 387.563 846.469 392.889 846.469 392.889C846.469 392.889 847.385 393.738 847.996 393.002C848.607 392.266 850.262 394.758 850.262 394.758L860.574 395.213C860.574 395.213 855.993 397.308 856.891 403.656C856.891 403.656 841.318 402.691 840.798 401.213C840.278 399.735 843.07 386.598 843.07 386.598Z" fill="black"/>
<path id="Path 231" d="M873.04 398.553L870.319 400.877L847.936 405.577L850.715 402.746L873.04 398.553Z" fill="white"/>
<path id="Path 232" d="M834.514 372.659C835.4 374.618 836.176 376.626 836.838 378.672C837.577 380.785 838.197 382.642 838.197 382.642C838.197 382.642 839.641 392.05 840.377 393.748C841.113 395.446 840.716 402.084 840.716 402.084L843.464 418.461C843.464 418.461 844.71 426.904 846.634 431.946C847.558 434.614 848.94 437.101 850.717 439.296C849.865 438.145 845.217 415.444 845.217 415.444L843.69 386.825C843.69 386.825 843.464 384.107 843.235 381.783C843.006 379.459 838.419 376.283 838.419 376.283L833.985 369.977C833.533 370.601 833.833 371.639 834.514 372.659Z" fill="white"/>
<path id="Path 233" d="M846.077 409.433C846.077 409.433 852.594 409.152 855.766 405.353C858.938 401.554 848.456 403.826 848.456 403.826L845.738 404.437L846.077 409.433Z" fill="#FFB0B1"/>
<path id="Path 234" opacity="0.1" d="M815.588 452.895C815.937 454.132 815.993 455.433 815.75 456.695C820.705 456.9 825.665 456.422 830.49 455.272C832.106 456.505 833.833 457.586 835.648 458.503L837.688 433.228C838.988 429.828 839.499 411.978 839.499 411.978C839.499 411.978 839.383 411.044 839.194 409.645C839.196 409.611 839.19 409.577 839.179 409.545C838.669 405.636 837.652 398.298 837.169 397.306C836.488 395.947 839.264 392.322 839.264 392.322L838.003 381.549L837.85 380.249C835.184 379.058 833.144 375.262 833.144 375.262L831.581 372.514C829.874 371.421 829.792 382.13 829.792 382.13L831.484 407.414L825.838 405.857C825.838 405.857 814.626 449.665 815.588 452.895Z" fill="black"/>
<path id="Path 235" d="M808.277 454.651C816.039 458.505 830.15 454.935 830.15 454.935C831.766 456.168 833.493 457.249 835.308 458.166L837.348 432.891C838.648 429.491 839.159 411.644 839.159 411.644C839.159 411.644 837.516 398.327 836.838 396.968C836.671 396.431 836.718 395.85 836.969 395.347C838.127 392.32 838.553 389.061 838.212 385.838L837.668 381.212L837.515 379.912C834.852 378.721 832.815 374.922 832.815 374.922L831.395 372.436L828.781 367.856L827.544 365.688L827.336 365.877L825.73 367.331C825.73 367.331 825.049 367.893 824.03 368.757C821.807 370.629 817.966 373.927 815.987 375.942C814.243 377.722 813.694 384.633 813.544 389.836C813.437 393.259 813.501 395.943 813.501 395.943C815.26 398.832 810.67 422.067 810.67 422.067C809.581 426.546 808.277 454.651 808.277 454.651Z" fill="white"/>
<path id="Path 236" opacity="0.03" d="M823.175 374.87C823.175 374.87 828.504 385.014 827.875 388.865C827.246 392.716 825.496 397.082 826.348 398.102C826.639 398.488 827.016 398.802 827.449 399.018C827.882 399.234 828.359 399.347 828.843 399.348C830.004 399.714 831.069 400.334 831.961 401.162C831.961 401.333 834.056 401.333 835.931 402.127C837.436 402.692 838.993 403.109 840.579 403.373C840.579 403.373 845.963 403.202 846.472 403.712C846.981 404.222 847.492 407.282 846.414 409.719C845.336 412.156 844.148 413.97 843.241 414.299C842.334 414.628 836.612 412.714 831.967 412.259C827.322 411.804 822.256 408.134 822.256 408.134C822.256 408.134 816.705 406.149 815.74 402.805C814.775 399.461 816.931 381.105 816.931 381.105C816.931 381.105 818.595 372.546 823.175 374.87Z" fill="black"/>
<path id="Path 237" opacity="0.03" d="M823.86 374.02C823.86 374.02 829.186 384.161 828.56 388.015C827.934 391.869 826.181 396.232 827.033 397.252C827.324 397.638 827.701 397.952 828.134 398.168C828.567 398.384 829.044 398.497 829.528 398.498C830.688 398.864 831.752 399.483 832.643 400.312C832.643 400.483 834.743 400.48 836.613 401.274C838.118 401.839 839.675 402.257 841.261 402.52C841.261 402.52 846.645 402.352 847.154 402.862C847.663 403.372 848.174 406.432 847.096 408.868C846.018 411.304 844.83 413.119 843.923 413.448C843.016 413.777 837.294 411.86 832.646 411.408C827.998 410.956 822.946 407.273 822.946 407.273C822.946 407.273 817.394 405.291 816.43 401.947C815.466 398.603 817.621 380.247 817.621 380.247C817.621 380.247 819.271 371.696 823.86 374.02Z" fill="black"/>
<path id="Path 238" d="M823.35 374.362C823.35 374.362 828.673 384.506 828.062 388.345C827.451 392.184 825.683 396.562 826.535 397.582C826.826 397.969 827.202 398.283 827.635 398.499C828.068 398.715 828.546 398.828 829.03 398.828C830.19 399.194 831.254 399.813 832.145 400.642C832.145 400.813 834.245 400.813 836.115 401.607C837.62 402.173 839.176 402.59 840.763 402.853C840.763 402.853 846.147 402.682 846.656 403.192C847.165 403.702 847.676 406.762 846.598 409.198C845.52 411.634 844.332 413.449 843.425 413.778C842.518 414.107 836.796 412.193 832.148 411.738C827.5 411.283 822.459 407.603 822.459 407.603C822.459 407.603 816.908 405.618 815.943 402.274C814.978 398.93 817.134 380.574 817.134 380.574C817.134 380.574 818.76 372.036 823.35 374.362Z" fill="white"/>
<path id="Path 239" opacity="0.1" d="M823.463 401.558C823.463 401.558 827.714 400.709 826.239 402.126C824.764 403.543 824.767 404.789 822.953 404.726C821.139 404.663 823.463 401.558 823.463 401.558Z" fill="black"/>
<path id="Path 240" opacity="0.1" d="M816.265 432.101C816.265 432.101 818.192 433.401 814.509 436.407C810.826 439.413 816.265 432.101 816.265 432.101Z" fill="black"/>
<path id="Path 241" opacity="0.1" d="M819.951 442.81C819.951 442.981 820.629 449.042 818.079 450.572C815.529 452.102 819.951 442.81 819.951 442.81Z" fill="black"/>
<path id="Path 242" d="M860.409 395.207C862.461 395.277 866.904 395.907 864.602 400.2C862.565 404 859.145 401.461 857.23 399.531C857.697 397.736 858.835 396.188 860.409 395.207V395.207Z" fill="#FFB0B1"/>
<path id="Path 244" d="M857.196 399.498C857.165 399.471 857.138 399.44 857.111 399.412C857.138 399.44 857.165 399.47 857.196 399.498Z" fill="#FFB0B1"/>
<path id="Path 245" opacity="0.1" d="M824.027 368.928C826.207 370.418 828.036 371.676 828.391 371.939C829.371 372.66 831.24 376.91 832.431 379.078C833.39 380.825 836.495 381.278 837.668 381.383L837.527 380.097C834.864 378.909 832.827 375.11 832.827 375.11L827.557 365.876L825.743 367.519C825.743 367.519 825.047 368.066 824.027 368.928Z" fill="black"/>
<path id="Path 246" d="M824.027 368.759C826.207 370.246 828.036 371.507 828.391 371.767C829.371 372.491 831.24 376.738 832.431 378.906C833.39 380.653 836.495 381.106 837.668 381.212L837.515 379.912C834.852 378.721 832.815 374.922 832.815 374.922L827.544 365.688L825.73 367.331C825.73 367.331 825.047 367.882 824.027 368.759Z" fill="#DCE7FF"/>
<path id="Path 247" d="M828.223 361.525C828.221 362.116 828.283 362.706 828.409 363.284C828.636 364.364 829.076 365.387 829.704 366.295C830.844 367.954 832.542 369.149 834.488 369.663C836.434 370.178 838.501 369.978 840.312 369.099C842.123 368.22 843.56 366.721 844.36 364.874C845.161 363.027 845.273 360.954 844.676 359.031C844.079 357.109 842.813 355.464 841.107 354.395C839.401 353.326 837.368 352.904 835.378 353.206C833.387 353.508 831.571 354.513 830.258 356.039C828.945 357.565 828.223 359.512 828.223 361.525V361.525Z" fill="#FFB0B1"/>
<path id="Path 248" opacity="0.1" d="M813.532 389.839C814.684 389.13 815.623 388.121 816.247 386.92C816.59 385.925 817.135 385.011 817.847 384.236C818.643 383.735 819.53 383.395 820.458 383.236C821.963 382.82 823.304 381.953 824.302 380.752C825.3 379.551 825.906 378.074 826.04 376.518C826.083 375.055 825.628 373.593 825.84 372.145C825.957 371.323 826.284 370.546 826.79 369.888C827.036 369.571 827.31 369.275 827.608 369.005C828.008 368.629 828.423 368.266 828.784 367.866C829.018 367.621 829.223 367.349 829.395 367.057C829.529 366.818 829.639 366.565 829.722 366.303C830.278 364.569 829.774 362.503 830.397 360.748C830.402 360.715 830.414 360.682 830.431 360.653C830.518 360.33 830.694 360.038 830.937 359.808C831.181 359.579 831.483 359.421 831.811 359.353C832.474 359.304 833.051 359.853 833.686 360.107C835.017 360.623 836.456 359.744 837.564 358.846C838.672 357.948 839.925 356.922 841.338 357.124C842.22 357.393 843.068 357.762 843.866 358.224C844.065 358.297 844.269 358.354 844.477 358.395C843.747 356.582 842.41 355.079 840.694 354.145C838.978 353.21 836.99 352.902 835.071 353.273C833.153 353.643 831.423 354.67 830.179 356.177C828.935 357.684 828.254 359.577 828.253 361.531C828.251 362.122 828.313 362.712 828.439 363.29C828.421 363.327 828.405 363.366 828.39 363.403C828.06 364.249 827.69 365.131 827.364 365.886L825.758 367.34C825.758 367.34 825.077 367.902 824.058 368.766C821.835 370.638 817.994 373.936 816.015 375.951C814.24 377.725 813.691 384.635 813.532 389.839Z" fill="black"/>
<path id="Path 249" d="M843.94 353.039C843.534 352.211 843.329 351.286 842.847 350.504C842.062 349.393 840.922 348.582 839.616 348.204C836.281 347.056 829.234 345.385 827.13 348.204C826.776 348.805 826.327 349.343 825.799 349.798C825.335 350.051 824.852 350.267 824.355 350.445C823.704 350.806 823.133 351.294 822.676 351.881C822.219 352.467 821.885 353.14 821.695 353.859C821.237 355.27 821.103 356.766 820.779 358.213C820.295 360.051 819.649 361.842 818.849 363.566C818.115 365.693 816.911 367.626 815.325 369.221C813.001 371.209 812.479 374.021 810.332 376.199C807.776 378.788 807.859 383.061 809.175 386.45C809.393 386.878 809.498 387.356 809.48 387.836C809.356 388.327 809.094 388.772 808.726 389.119L807.326 390.695C808.993 391.055 810.731 390.862 812.279 390.146C813.827 389.429 815.099 388.229 815.904 386.725C816.248 385.731 816.792 384.819 817.504 384.044C818.299 383.539 819.186 383.197 820.115 383.036C821.62 382.62 822.961 381.753 823.959 380.552C824.957 379.351 825.563 377.874 825.697 376.318C825.74 374.858 825.285 373.393 825.489 371.945C825.611 371.134 825.937 370.367 826.436 369.716C827.221 368.696 828.396 368.003 829.036 366.885C830.111 364.985 829.296 362.521 830.071 360.472C830.161 360.15 830.337 359.859 830.58 359.63C830.823 359.401 831.124 359.243 831.451 359.172C832.117 359.123 832.691 359.679 833.326 359.926C834.657 360.442 836.092 359.563 837.201 358.665C838.31 357.767 839.565 356.744 840.975 356.946C841.858 357.214 842.708 357.584 843.507 358.046C844.142 358.29 845.431 358.51 845.99 357.973C847.162 356.847 844.441 354.044 843.94 353.039Z" fill="#591D4B"/>
<path id="Path 250" opacity="0.1" d="M815.114 385.786C815.457 384.791 816.002 383.877 816.714 383.102C817.509 382.599 818.397 382.259 819.325 382.102C820.83 381.686 822.171 380.819 823.169 379.618C824.167 378.417 824.773 376.94 824.907 375.384C824.953 373.921 824.495 372.459 824.707 371.011C824.824 370.189 825.151 369.412 825.657 368.754C826.439 367.734 827.617 367.038 828.25 365.92C829.328 364.02 828.51 361.556 829.285 359.507C829.374 359.185 829.55 358.894 829.794 358.665C830.037 358.436 830.338 358.277 830.665 358.207C831.331 358.158 831.905 358.707 832.54 358.958C833.871 359.477 835.31 358.598 836.415 357.7C837.52 356.802 838.779 355.779 840.192 355.978C841.073 356.249 841.921 356.618 842.72 357.078C843.355 357.322 844.644 357.542 845.203 357.005C846.373 355.875 843.652 353.072 843.16 352.07C842.754 351.242 842.549 350.317 842.067 349.535L841.985 349.407C842.344 349.711 842.653 350.07 842.901 350.47C843.309 351.295 843.674 352.141 843.994 353.004C844.486 354.004 847.206 356.812 846.037 357.939C845.481 358.477 844.205 358.244 843.554 358.012C842.755 357.55 841.907 357.181 841.025 356.912C839.614 356.712 838.359 357.736 837.251 358.634C836.143 359.532 834.704 360.411 833.376 359.895C832.738 359.648 832.182 359.089 831.501 359.141C831.172 359.207 830.868 359.364 830.624 359.594C830.38 359.824 830.204 360.117 830.118 360.441C829.342 362.478 830.161 364.941 829.086 366.854C828.451 367.969 827.272 368.665 826.486 369.685C825.98 370.343 825.653 371.12 825.536 371.942C825.328 373.389 825.786 374.852 825.736 376.315C825.601 377.87 824.995 379.348 823.997 380.548C822.999 381.749 821.658 382.616 820.154 383.033C819.225 383.192 818.337 383.534 817.543 384.041C816.831 384.816 816.287 385.728 815.943 386.722C815.138 388.226 813.866 389.426 812.318 390.143C810.77 390.859 809.032 391.052 807.365 390.692L808.021 389.947C809.47 389.968 810.898 389.592 812.149 388.858C813.399 388.124 814.425 387.062 815.114 385.786V385.786Z" fill="black"/>
<path id="Path 251" opacity="0.1" d="M834.682 372.829C835.57 374.786 836.346 376.793 837.006 378.839C837.837 378.518 838.594 376.454 838.594 376.454L834.169 370.148C833.705 370.772 834.004 371.81 834.682 372.829Z" fill="black"/>
<path id="Path 252" d="M834.514 372.659C835.4 374.618 836.176 376.626 836.838 378.672C837.669 378.351 838.423 376.287 838.423 376.287L833.989 369.981C833.533 370.601 833.833 371.639 834.514 372.659Z" fill="#DCE7FF"/>
<path id="Path 253" d="M860.29 401.656L862.748 393.915C862.777 393.824 862.788 393.728 862.781 393.633C862.773 393.537 862.747 393.444 862.703 393.359C862.659 393.274 862.599 393.198 862.526 393.137C862.453 393.075 862.369 393.028 862.278 392.999V392.999C862.187 392.969 862.091 392.957 861.995 392.964C861.899 392.972 861.806 392.998 861.721 393.042C861.636 393.085 861.56 393.146 861.498 393.219C861.437 393.292 861.39 393.377 861.362 393.469L858.904 401.216L859.148 402.837L860.29 401.656Z" fill="#BE8B87"/>
<path id="Path 254" opacity="0.1" d="M862.516 393.228C862.424 393.199 862.328 393.188 862.233 393.195C862.137 393.203 862.044 393.23 861.959 393.274C861.874 393.318 861.799 393.378 861.737 393.452C861.675 393.525 861.628 393.61 861.6 393.701L859.142 401.442L859.328 402.663L859.148 402.849L858.904 401.228L861.362 393.487C861.39 393.395 861.437 393.31 861.498 393.237C861.56 393.164 861.636 393.103 861.721 393.06C861.806 393.016 861.899 392.99 861.995 392.982C862.091 392.975 862.187 392.987 862.278 393.017V393.017C862.431 393.064 862.563 393.162 862.654 393.295C862.61 393.268 862.564 393.245 862.516 393.228Z" fill="white"/>
<path id="Path 255" d="M860.289 401.656L858.909 401.216L859.109 402.547L859.152 402.837L859.552 402.416L860.289 401.656Z" fill="#EFC8C4"/>
<path id="Path 256" d="M859.557 402.416C859.531 402.387 859.501 402.362 859.468 402.343C859.448 402.331 859.425 402.324 859.402 402.324C859.379 402.324 859.356 402.331 859.337 402.343C859.317 402.366 859.3 402.391 859.288 402.419C859.269 402.451 859.244 402.479 859.213 402.499C859.182 402.52 859.147 402.533 859.111 402.538L859.154 402.843L859.557 402.416Z" fill="#727A9C"/>
<path id="Path 257" d="M862.76 396.657C862.76 396.657 857.828 396.63 858.992 398.724C859.284 399.311 859.702 399.825 860.216 400.232C860.73 400.638 861.327 400.926 861.966 401.075L862.76 396.657Z" fill="#FFB0B1"/>
</g>
<g id="astronout">
<path id="Path 184" opacity="0.998" d="M1166.19 282.094L1168.75 291.074C1168.75 291.074 1163.43 307.167 1138.75 307.728L1137.94 310.027L1135.23 310.772L1134 315.986L1137.45 349.007C1137.45 349.007 1135.97 352.234 1138.43 351.986C1138.43 351.986 1154.67 346.525 1168.7 351.489C1168.7 351.489 1171.66 352.731 1170.92 350C1170.92 350 1180.76 343.793 1180.03 337.338C1179.29 330.883 1180.76 300.841 1180.76 300.841C1180.76 300.841 1182.24 292.15 1177.81 290.165C1177.81 290.164 1171.3 280.977 1166.19 282.094Z" fill="white"/>
<path id="Rectangle 83" opacity="0.998" d="M1169 259H1167V284H1169V259Z" fill="#E6E6E6"/>
<path id="Path 178" opacity="0.998" d="M1139.34 326L1128 351.532L1130.22 355.146L1129.48 356.35L1134.65 359V357.553L1136.62 357.071L1145 342.137L1139.34 326Z" fill="#E6E6E6"/>
<path id="Path 179" d="M1130.41 356C1130.41 356 1122.12 369.746 1131.39 371.82C1140.65 373.895 1133.09 357.298 1133.09 357.298L1130.41 356Z" fill="#E6E6E6"/>
<path id="Path 180" d="M1142.39 350.37L1139.44 360.057L1138.21 372.474L1136 376.945L1138.46 397.062L1142.39 401.036L1144.11 420.904V429.845L1148.78 438.041L1142.77 446.666C1142.48 447.071 1142.31 447.547 1142.27 448.042C1142.24 448.537 1142.33 449.033 1142.55 449.478C1142.77 449.922 1143.1 450.298 1143.52 450.566C1143.93 450.835 1144.41 450.984 1144.9 451C1146.78 450.95 1148.62 450.423 1150.25 449.466C1157.38 445.739 1157.13 442.263 1157.13 442.263C1157.13 442.263 1161.55 442.263 1161.8 438.787C1162.05 435.31 1159.1 410.473 1159.1 410.473L1156.39 399.794V370.736H1157.38L1157.87 395.571L1160.08 404.761L1160.32 408.735L1163.52 448.472C1163.52 448.472 1177.77 452.446 1178.51 449.218C1179.24 445.989 1173.1 444.002 1173.1 444.002L1176.79 436.8V422.889L1175.56 419.909L1173.35 399.792L1177.03 395.818L1179 393.334V373.468L1176.54 365.768L1175.81 359.315L1171.87 349.38C1171.87 349.38 1153.93 343.416 1142.39 350.37Z" fill="white"/>
<path id="Path 181" opacity="0.998" d="M1171 295C1171 298.007 1170.29 300.971 1168.92 303.649C1167.55 306.326 1165.56 308.641 1163.13 310.401C1160.69 312.162 1157.87 313.32 1154.9 313.778C1151.92 314.236 1148.89 313.983 1146.03 313.038C1143.18 312.094 1140.59 310.485 1138.48 308.345C1136.36 306.204 1134.79 303.593 1133.88 300.726C1132.98 297.858 1132.76 294.817 1133.26 291.852C1133.76 288.886 1134.96 286.081 1136.75 283.668L1136.75 283.663C1139.14 280.458 1142.47 278.085 1146.28 276.882C1150.09 275.679 1154.18 275.707 1157.97 276.963C1161.76 278.218 1165.06 280.637 1167.4 283.875C1169.74 287.114 1171 291.007 1171 295.001V295Z" fill="#385298"/>
<path id="Path 183" opacity="0.998" d="M1168 283.125L1166.5 292C1155.23 261.765 1137.31 280.337 1137 280.662C1138.85 278.087 1141.31 276.039 1144.13 274.709C1146.96 273.379 1150.06 272.81 1153.16 273.056C1156.25 273.301 1159.24 274.353 1161.83 276.114C1164.43 277.874 1166.55 280.285 1168 283.123V283.125Z" fill="white"/>
<path id="Path 185" d="M1160.32 345C1160.32 345 1145.65 346.47 1149.71 354.587C1153.77 362.704 1161 347.739 1161 347.739L1160.32 345Z" fill="#E6E6E6"/>
<path id="Path 186" opacity="0.998" d="M1172.25 306.548C1171.38 307.739 1170.77 309.098 1170.47 310.536C1170.16 311.973 1170.18 313.458 1170.5 314.891C1171.5 320.044 1175.25 331.578 1175.25 331.578L1162 343.602L1166 349L1184 339.921L1188 337.467C1187.01 327.542 1184.53 317.814 1180.65 308.595L1180 307.038C1180 307.038 1175.25 305.075 1172.25 306.548Z" fill="#E6E6E6"/>
<path id="Ellipse 19" opacity="0.998" d="M1167.5 298C1169.99 298 1172 295.985 1172 293.5C1172 291.015 1169.99 289 1167.5 289C1165.01 289 1163 291.015 1163 293.5C1163 295.985 1165.01 298 1167.5 298Z" fill="#E6E6E6"/>
<path id="Ellipse 20" opacity="0.998" d="M1168 263C1169.66 263 1171 261.433 1171 259.5C1171 257.567 1169.66 256 1168 256C1166.34 256 1165 257.567 1165 259.5C1165 261.433 1166.34 263 1168 263Z" fill="#E6E6E6"/>
</g>
<g id="Path 187" clip-path="url(#clip1)">
<path id="Path 187_2" opacity="0.998" d="M940.998 55.8222H939.176V54H938.82V55.8222H937V56.1778H938.822V58H939.178V56.1778H941L940.998 55.8222Z" fill="#F2F2F2"/>
</g>
<g id="Ellipse 16">
<path id="Ellipse 16_2" opacity="0.998" d="M1306 206C1307.66 206 1309 204.657 1309 203C1309 201.343 1307.66 200 1306 200C1304.34 200 1303 201.343 1303 203C1303 204.657 1304.34 206 1306 206Z" fill="#F2F2F2"/>
</g>
<g id="Ellipse 24_2">
<path id="Ellipse 16_3" opacity="0.998" d="M1352 206C1353.66 206 1355 204.657 1355 203C1355 201.343 1353.66 200 1352 200C1350.34 200 1349 201.343 1349 203C1349 204.657 1350.34 206 1352 206Z" fill="#F2F2F2"/>
</g>
<g id="star4">
<g id="Ellipse 26_2">
<path id="Ellipse 16_4" opacity="0.998" d="M1409 171C1410.66 171 1412 169.657 1412 168C1412 166.343 1410.66 165 1409 165C1407.34 165 1406 166.343 1406 168C1406 169.657 1407.34 171 1409 171Z" fill="#F2F2F2"/>
</g>
</g>
<g id="Ellipse 25_2">
<g id="star3">
<path id="Ellipse 16_5" opacity="0.998" d="M1306 281C1307.66 281 1309 279.657 1309 278C1309 276.343 1307.66 275 1306 275C1304.34 275 1303 276.343 1303 278C1303 279.657 1304.34 281 1306 281Z" fill="#F2F2F2"/>
</g>
</g>
<g id="Ellipse 6">
<path id="Ellipse 6_2" opacity="0.998" d="M1283 160C1327.18 160 1363 124.183 1363 80C1363 35.8172 1327.18 0 1283 0C1238.82 0 1203 35.8172 1203 80C1203 124.183 1238.82 160 1283 160Z" fill="#C4B4B4"/>
<path id="Vector" d="M1245.1 74H1244C1244.08 85.9533 1248.85 97.3907 1257.28 105.82C1265.71 114.249 1277.11 118.986 1289 119V117.896C1277.4 117.884 1266.28 113.263 1258.06 105.04C1249.83 96.818 1245.18 85.6608 1245.1 74V74Z" fill="#6C63FF"/>
<path id="Vector_2" d="M1225.09 74H1224C1224.08 90.9906 1230.97 107.258 1243.14 119.25C1255.32 131.242 1271.81 137.982 1289 138V136.92C1272.1 136.902 1255.89 130.274 1243.92 118.485C1231.94 106.696 1225.18 90.7039 1225.09 74V74Z" fill="#6C63FF"/>
<path id="Vector_3" d="M1204.1 74H1203C1203.14 121.444 1241.66 160 1289 160V158.901C1242.26 158.901 1204.23 120.84 1204.1 74Z" fill="#6C63FF"/>
</g>
<g id="Ellipse 21">
<path id="Ellipse 21_2" opacity="0.998" d="M1022 162C1023.1 162 1024 161.105 1024 160C1024 158.895 1023.1 158 1022 158C1020.9 158 1020 158.895 1020 160C1020 161.105 1020.9 162 1022 162Z" fill="#F2F2F2"/>
</g>
<g id="undraw_to_the_moon_v1mv 1">
<path id="Vector_4" d="M830 497.322H828.178V495.5H827.822V497.322H826V497.678H827.822V499.5H828.178V497.678H830V497.322Z" fill="#F2F2F2"/>
<path id="Vector_5" d="M859.01 270.031C855.691 266.712 855.691 261.33 859.01 258.01C862.33 254.691 867.712 254.691 871.031 258.01C874.351 261.33 874.351 266.712 871.031 270.031C867.712 273.351 862.33 273.351 859.01 270.031Z" fill="#3F3D56"/>
</g>
<path id="Vector_6" d="M1089.44 340.818C1073.18 339.862 1060.3 333.918 1060.68 327.543C1061.05 321.168 1074.54 316.775 1090.8 317.731C1107.05 318.687 1119.93 324.63 1119.55 331.005C1119.18 337.381 1105.7 341.774 1089.44 340.818Z" fill="#202024" fill-opacity="0.58"/>
<path id="Vector_7" d="M977.38 335.192C956.183 334.193 939.363 325.687 939.81 316.192C940.257 306.697 957.803 299.81 979 300.808C1000.2 301.807 1017.02 310.313 1016.57 319.808C1016.12 329.303 998.576 336.19 977.38 335.192Z" fill="#202024" fill-opacity="0.51"/>
<path id="Ellipse 9" opacity="0.998" d="M1086.92 131.83C1108.96 131.83 1126.83 113.959 1126.83 91.915C1126.83 69.8706 1108.96 52 1086.92 52C1064.87 52 1047 69.8706 1047 91.915C1047 113.959 1064.87 131.83 1086.92 131.83Z" fill="#D04343"/>
<path id="Vector_8" d="M1026.54 191.659C1025.95 191.073 1025.79 190.281 1026.18 189.891C1026.57 189.5 1027.37 189.659 1027.95 190.244C1028.54 190.83 1028.7 191.622 1028.31 192.012C1027.91 192.403 1027.12 192.244 1026.54 191.659Z" fill="#F2F2F2"/>
<path id="Vector_9" d="M994.749 212.84L995.071 213.162L995.393 212.84L995.456 212.903L995.134 213.225L995.456 213.547L995.393 213.61L995.071 213.288L994.749 213.61L994.686 213.547L995.008 213.225L994.686 212.903L994.749 212.84Z" fill="#F2F2F2"/>
<path id="Vector_10" d="M1163.3 191.894C1154.85 183.445 1154.85 169.747 1163.3 161.298C1171.75 152.849 1185.45 152.849 1193.89 161.298C1202.34 169.747 1202.34 183.445 1193.89 191.894C1185.45 200.343 1171.75 200.343 1163.3 191.894Z" fill="#6C63FF"/>
<defs>
<linearGradient id="paint0_linear" x1="840.167" y1="505.668" x2="840.167" y2="346.14" gradientUnits="userSpaceOnUse">
<stop stop-color="#808080" stop-opacity="0.251"/>
<stop offset="0.54" stop-color="#808080" stop-opacity="0.122"/>
<stop offset="1" stop-color="#808080" stop-opacity="0.102"/>
</linearGradient>
<clipPath id="clip0">
<rect width="40.94" height="40.94" fill="white" transform="translate(923 127)"/>
</clipPath>
<clipPath id="clip1">
<rect width="4" height="4" fill="white" transform="translate(937 54)"/>
</clipPath>
</defs>
</svg>
