<svg xmlns="http://www.w3.org/2000/svg" xmlns:xlink="http://www.w3.org/1999/xlink" width="651" height="471" viewBox="0 0 651 471">
  <defs>
    <style>
      .cls-1 {
        fill: #c4b4b4;
      }

      .cls-1, .cls-11, .cls-12, .cls-13, .cls-14, .cls-2, .cls-5, .cls-8 {
        opacity: 0.998;
      }

      .cls-2 {
        fill: #d04343;
      }

      .cls-3 {
        fill: #3a485d;
      }

      .cls-16, .cls-18, .cls-29, .cls-4 {
        opacity: 0.1;
      }

      .cls-5, .cls-6 {
        fill: #f2f2f2;
      }

      .cls-7 {
        fill: #ff6584;
      }

      .cls-8, .cls-9 {
        fill: #e6e6e6;
      }

      .cls-10, .cls-13, .cls-20, .cls-29 {
        fill: #fff;
      }

      .cls-11 {
        fill: #385298;
      }

      .cls-14 {
        fill: #178445;
      }

      .cls-15, .cls-16, .cls-19 {
        fill: #6c63ff;
      }

      .cls-17 {
        fill: #96b7fe;
        opacity: 0.9;
      }

      .cls-19 {
        opacity: 0.3;
      }

      .cls-20 {
        opacity: 0.2;
      }

      .cls-21 {
        fill: url(#linear-gradient);
      }

      .cls-22 {
        fill: #1d2366;
      }

      .cls-23 {
        fill: #ffb0b1;
      }

      .cls-24 {
        fill: #c7daf5;
      }

      .cls-25 {
        opacity: 0.03;
      }

      .cls-26 {
        fill: #dce7ff;
      }

      .cls-27 {
        fill: #591d4b;
      }

      .cls-28 {
        fill: #be8b87;
      }

      .cls-30 {
        fill: #efc8c4;
      }

      .cls-31 {
        fill: #727a9c;
      }
    </style>
    <linearGradient id="linear-gradient" x1="0.5" y1="1" x2="0.5" gradientUnits="objectBoundingBox">
      <stop offset="0" stop-color="gray" stop-opacity="0.251"/>
      <stop offset="0.54" stop-color="gray" stop-opacity="0.122"/>
      <stop offset="1" stop-color="gray" stop-opacity="0.102"/>
    </linearGradient>
  </defs>
  <g id="Group_635" data-name="Group 635" transform="translate(-146 -507)">
    <circle id="Ellipse_6" data-name="Ellipse 6" class="cls-1" cx="80" cy="80" r="80" transform="translate(609 507)"/>
    <circle id="Ellipse_9" data-name="Ellipse 9" class="cls-2" cx="39.915" cy="39.915" r="39.915" transform="translate(441.161 569.947)"/>
    <path id="Path_258" data-name="Path 258" class="cls-3" d="M577.128,276.46V385.483c0,88.873-69.376,160.914-154.952,160.909H137V437.369c0-58.258,29.816-109.29,74.47-137.528a151.552,151.552,0,0,1,24.183-12.429,148.215,148.215,0,0,1,15.1-5.2c.1-.034.2-.064.3-.089q2.267-.644,4.563-1.214c.086-.025.166-.044.252-.064a149.624,149.624,0,0,1,28.741-4.21c1.145-.054,2.291-.1,3.446-.123.414-.015.832-.025,1.255-.025q1.312-.03,2.638-.03Z" transform="translate(9 431.607)"/>
    <g id="Group_59" data-name="Group 59" class="cls-4" transform="translate(391.282 813.346)">
      <ellipse id="Ellipse_10" data-name="Ellipse 10" cx="22.359" cy="10.562" rx="22.359" ry="10.562"/>
    </g>
    <g id="Group_60" data-name="Group 60" class="cls-4" transform="translate(454.509 796.334)">
      <ellipse id="Ellipse_11" data-name="Ellipse 11" cx="38.024" cy="10.562" rx="38.024" ry="10.562"/>
    </g>
    <g id="Group_61" data-name="Group 61" class="cls-4" transform="translate(395.084 815.402)">
      <ellipse id="Ellipse_12" data-name="Ellipse 12" cx="20.5" cy="9.5" rx="20.5" ry="9.5" transform="translate(-0.084 -0.402)"/>
    </g>
    <g id="Group_62" data-name="Group 62" class="cls-4" transform="translate(458.311 797.391)">
      <ellipse id="Ellipse_13" data-name="Ellipse 13" cx="34.5" cy="9.5" rx="34.5" ry="9.5" transform="translate(-0.311 -0.39)"/>
    </g>
    <ellipse id="Ellipse_14" data-name="Ellipse 14" class="cls-5" cx="3.5" cy="3" rx="3.5" ry="3" transform="translate(305 632)"/>
    <ellipse id="Ellipse_15" data-name="Ellipse 15" class="cls-6" cx="3.5" cy="3" rx="3.5" ry="3" transform="translate(591 762)"/>
    <circle id="Ellipse_16" data-name="Ellipse 16" class="cls-5" cx="3" cy="3" r="3" transform="translate(723 755)"/>
    <circle id="Ellipse_17" data-name="Ellipse 17" class="cls-7" cx="2" cy="2" r="2" transform="translate(601 636)"/>
    <circle id="Ellipse_18" data-name="Ellipse 18" class="cls-7" cx="2" cy="2" r="2" transform="translate(314 731)"/>
    <path id="Path_170" data-name="Path 170" class="cls-6" d="M91.9,580.366h-.866V579.5h-.169v.866H90v.169h.866v.866h.169v-.866H91.9Z" transform="translate(195.777 192.938)"/>
    <path id="Path_171" data-name="Path 171" class="cls-6" d="M676.9,432.366h-.866V431.5h-.169v.866H675v.169h.866v.866h.169v-.866h.866Z" transform="translate(-111.172 270.592)"/>
    <path id="Path_172" data-name="Path 172" class="cls-6" d="M827.9,402.366h-.866V401.5h-.169v.866H826v.169h.866v.866h.169v-.866h.866Z" transform="translate(-190.402 286.332)"/>
    <path id="Path_173" data-name="Path 173" class="cls-6" d="M502.9,482.366h-.866V481.5h-.169v.866H501v.169h.866v.866h.169v-.866h.866Z" transform="translate(-19.874 244.357)"/>
    <path id="Path_174" data-name="Path 174" class="cls-6" d="M783.9,492.366h-.866V491.5h-.169v.866H782v.169h.866v.866h.169v-.866h.866Z" transform="translate(-167.315 239.109)"/>
    <path id="Path_175" data-name="Path 175" class="cls-6" d="M444.9,535.366h-.866V534.5h-.169v.866H443v.169h.866v.866h.169v-.866h.866Z" transform="translate(10.558 216.549)"/>
    <path id="Path_176" data-name="Path 176" class="cls-6" d="M572.9,537.366h-.866V536.5h-.169v.866H571v.169h.866v.866h.169v-.866h.866Z" transform="translate(-56.603 215.498)"/>
    <path id="Path_177" data-name="Path 177" class="cls-5" d="M93.9,367.366h-.866V366.5h-.169v.866H92v.169h.866v.866h.169v-.866H93.9Z" transform="translate(194.728 304.697)"/>
    <rect id="Rectangle_83" data-name="Rectangle 83" class="cls-8" width="1.366" height="27.598" transform="translate(564.777 606.646)"/>
    <path id="Path_178" data-name="Path 178" class="cls-8" d="M597.872,385.046,585.3,414.01l2.459,4.1-.82,1.366,5.738,3.006v-1.639l2.186-.547,9.29-16.941Z" transform="translate(-64.108 294.967)"/>
    <path id="Path_179" data-name="Path 179" class="cls-9" d="M723.831,532.407s-9.29,14.482,1.093,16.668,1.913-15.3,1.913-15.3Z" transform="translate(-199.904 181.762)"/>
    <path id="Path_180" data-name="Path 180" class="cls-10" d="M748.378,514.515,745.1,525.172l-1.366,13.662-2.459,4.918,2.732,22.133,4.372,4.372,1.913,21.859v9.837l5.192,9.017-6.685,9.489a3.023,3.023,0,0,0,2.372,4.768,12.491,12.491,0,0,0,5.953-1.688c7.924-4.1,7.651-7.924,7.651-7.924s4.918,0,5.192-3.825-3.006-31.15-3.006-31.15l-3.006-11.749v-31.97h1.093l.547,27.324,2.459,10.11.273,4.372,3.552,43.719s15.848,4.372,16.668.82-6.011-5.738-6.011-5.738l4.1-7.924V594.3l-1.366-3.279-2.459-22.133,4.1-4.372,2.186-2.732V539.927l-2.732-8.471-.82-7.1-4.372-10.93S761.221,506.864,748.378,514.515Z" transform="translate(-211.062 193.096)"/>
    <path id="Path_181" data-name="Path 181" class="cls-11" d="M785.107,365.757a20.766,20.766,0,1,1-37.434-12.386l.005-.005a20.765,20.765,0,0,1,37.429,12.392Z" transform="translate(-212.269 280.1)"/>
    <g id="Group_63" data-name="Group 63" class="cls-12" transform="translate(534.862 626.184)">
      <path id="Path_182" data-name="Path 182" d="M786.083,358.357l-1.694,9.7c-12.73-33.046-32.98-12.747-33.33-12.392a20.766,20.766,0,0,1,35.024,2.689Z" transform="translate(-751.059 -347.293)"/>
    </g>
    <path id="Path_183" data-name="Path 183" class="cls-13" d="M787.233,356.057l-1.694,9.7c-12.73-33.046-32.98-12.747-33.33-12.392a20.766,20.766,0,0,1,35.024,2.689Z" transform="translate(-216.8 280.098)"/>
    <path id="Path_184" data-name="Path 184" class="cls-13" d="M780.459,359.538l2.847,9.882s-5.909,17.711-33.312,18.329l-.9,2.53-3.006.82-1.366,5.738,3.825,36.341s-1.639,3.552,1.093,3.279c0,0,18.034-6.011,33.609-.547,0,0,3.279,1.366,2.459-1.639,0,0,10.93-6.831,10.11-13.935s.82-40.167.82-40.167,1.639-9.564-3.279-11.749C793.361,368.419,786.137,358.308,780.459,359.538Z" transform="translate(-212.872 272.52)"/>
    <path id="Path_185" data-name="Path 185" class="cls-9" d="M792.722,504.918s-17.12,1.719-12.381,11.213,13.178-8.009,13.178-8.009Z" transform="translate(-231.126 196.186)"/>
    <path id="Path_186" data-name="Path 186" class="cls-8" d="M813.415,415.032a11.6,11.6,0,0,0-1.913,9.29c1.093,5.738,5.192,18.581,5.192,18.581l-14.482,13.389,4.372,6.011,19.674-10.11,4.372-2.732h0a113.361,113.361,0,0,0-8.029-32.15l-.715-1.733S816.694,413.392,813.415,415.032Z" transform="translate(-243.036 243.668)"/>
    <circle id="Ellipse_19" data-name="Ellipse 19" class="cls-8" cx="5.055" cy="5.055" r="5.055" transform="translate(563.957 638.889)"/>
    <circle id="Ellipse_20" data-name="Ellipse 20" class="cls-8" cx="3.689" cy="3.689" r="3.689" transform="translate(561.771 602.82)"/>
    <path id="Path_187" data-name="Path 187" class="cls-5" d="M478.9,351.366h-.866V350.5h-.169v.866H477v.169h.866v.866h.169v-.866h.866Z" transform="translate(280.718 413.094)"/>
    <path id="Path_188" data-name="Path 188" class="cls-5" d="M642.9,295.366h-.866V294.5h-.169v.866H641v.169h.866v.866h.169v-.866h.866Z" transform="translate(-93.332 342.477)"/>
    <path id="Path_189" data-name="Path 189" class="cls-5" d="M624.9,312.366h-.866V311.5h-.169v.866H623v.169h.866v.866h.169v-.866h.866Z" transform="translate(-83.888 333.557)"/>
    <circle id="Ellipse_21" data-name="Ellipse 21" class="cls-5" cx="2" cy="2" r="2" transform="translate(793 722)"/>
    <circle id="Ellipse_22" data-name="Ellipse 22" class="cls-14" cx="20.47" cy="20.47" r="20.47" transform="translate(365.06 609.078)"/>
    <path id="Path_193" data-name="Path 193" class="cls-15" d="M981.961,276.46h-.951a39.015,39.015,0,0,0,38.97,38.756v-.951a38.061,38.061,0,0,1-38.019-37.805Z" transform="translate(-336.852 316.057)"/>
    <path id="Path_194" data-name="Path 194" class="cls-15" d="M944.961,276.46h-.951a56.616,56.616,0,0,0,56.556,56.342v-.951A55.668,55.668,0,0,1,944.961,276.46Z" transform="translate(-317.438 316.057)"/>
    <path id="Path_195" data-name="Path 195" class="cls-15" d="M906.951,276.46H906a74.707,74.707,0,0,0,74.622,74.4v-.951A73.753,73.753,0,0,1,906.951,276.46Z" transform="translate(-297.494 316.057)"/>
    <g id="Group_65" data-name="Group 65" transform="translate(111.33 -48.844)">
      <path id="Path_170-2" data-name="Path 170" class="cls-6" d="M90,580.475h.975V579.5h.19v.975h.975v.19h-.975v.975h-.19v-.975H90Z" transform="translate(-6.573 317.386)"/>
      <path id="Path_177-2" data-name="Path 177" class="cls-5" d="M92,367.475h.975V366.5h.19v.975h.975v.19h-.975v.975h-.19v-.975H92Z" transform="translate(-9.643 416.424)"/>
      <path id="Path_196" data-name="Path 196" class="cls-15" d="M127.778,801.332s12.908-.779,11.387,8.269a2.2,2.2,0,0,1-1.145,2.324s-.024-.672-1.325-.443a5.92,5.92,0,0,1-1.4.067,2.921,2.921,0,0,1-1.716-.708h0s-3.628-1.5-5.042-7.429c0,0-1.044-1.295-1-1.628l2.177.916a3.918,3.918,0,0,0-.159,2.876s.073-2.818.492-2.748c.085.015,1.13.547,1.13.547s-1.279,2.748-.305,4.727c0,0-.366-3.374.715-4.532l1.527.9s-1.5,2.828-.482,5.133c0,0-.26-3.539.8-4.916l1.389,1.084s-1.4,2.788-.547,4.7c0,0,.11-4.119.849-4.431a8,8,0,0,1,1.4,1.527s-.965,2.021-.366,3.09c0,0,.366-2.748.666-2.748a8.917,8.917,0,0,1,1.338,3.054,6.62,6.62,0,0,0-1.041-3.24,3.63,3.63,0,0,1,1.854.959s-.189-1.286-2.153-1.4a8.47,8.47,0,0,0-1.27-1.463,7.975,7.975,0,0,1,3.139.363s-1.041-1.221-3.5-.663l-1.374-1.121a11.361,11.361,0,0,1,3.664.037s-1.255-1.072-4.034-.29l-1.493-.892a13.628,13.628,0,0,1,3.5-.305,5.365,5.365,0,0,0-3.939.061l-1.069-.479s1.609-.305,2.08-.366.495-.18.495-.18a5.576,5.576,0,0,0-3.02.336A13.446,13.446,0,0,1,127.778,801.332Z" transform="translate(192.786 121.985)"/>
      <ellipse id="Ellipse_23" data-name="Ellipse 23" class="cls-16" cx="9.136" cy="1.545" rx="9.136" ry="1.545" transform="translate(320.319 933.153)"/>
      <path id="Path_197" data-name="Path 197" class="cls-15" d="M1072.272,734.058s7.28-.44,6.413,4.66a1.246,1.246,0,0,1-.647,1.313s0-.379-.745-.25a3.407,3.407,0,0,1-.791.037,1.648,1.648,0,0,1-.968-.4h0s-2.046-.846-2.843-4.19c0,0-.586-.73-.565-.916l1.221.525a2.21,2.21,0,0,0-.089,1.624s.04-1.591.275-1.554c.049,0,.641.305.641.305a3.61,3.61,0,0,0-.18,2.663s-.2-1.9.4-2.553l.867.5a3.816,3.816,0,0,0-.272,2.9s-.15-2,.452-2.773l.785.611a3.712,3.712,0,0,0-.305,2.651s.064-2.324.479-2.5a4.769,4.769,0,0,1,.791.852s-.543,1.139-.208,1.744c0,0,.208-1.548.379-1.554a5.119,5.119,0,0,1,.751,1.725,3.722,3.722,0,0,0-.586-1.832,2.045,2.045,0,0,1,1.044.543s-.107-.727-1.221-.791a4.76,4.76,0,0,0-.718-.824,4.5,4.5,0,0,1,1.771.2,1.989,1.989,0,0,0-1.973-.373l-.772-.632a6.366,6.366,0,0,1,2.064.021,2.487,2.487,0,0,0-2.272-.165l-.843-.5a7.592,7.592,0,0,1,1.973-.168,3.014,3.014,0,0,0-2.22.033l-.611-.272s.916-.177,1.17-.2.281-.1.281-.1a3.15,3.15,0,0,0-1.7.189A7.474,7.474,0,0,1,1072.272,734.058Z" transform="translate(-1035.125 168.711)"/>
      <ellipse id="Ellipse_24" data-name="Ellipse 24" class="cls-16" cx="5.151" cy="0.87" rx="5.151" ry="0.87" transform="translate(37.01 908.315)"/>
      <path id="Path_198" data-name="Path 198" class="cls-15" d="M1018.911,779.524s8.788-.528,7.738,5.634a1.505,1.505,0,0,1-.782,1.585s0-.458-.916-.305a4.011,4.011,0,0,1-.956.046,1.991,1.991,0,0,1-1.167-.482h0s-2.47-1.02-3.429-5.057c0,0-.712-.882-.684-1.109l1.484.635a2.661,2.661,0,0,0-.11,1.957s.049-1.921.333-1.875c.058,0,.773.37.773.37a4.378,4.378,0,0,0-.214,3.218s-.25-2.3.485-3.081l1.044.611a4.614,4.614,0,0,0-.33,3.5s-.177-2.409.55-3.359l.944.736s-.956,1.9-.373,3.2c0,0,.076-2.8.58-3.014a5.643,5.643,0,0,1,.953,1.029s-.657,1.377-.25,2.1c0,0,.25-1.869.455-1.878a6.293,6.293,0,0,1,.916,2.086,4.51,4.51,0,0,0-.712-2.2,2.487,2.487,0,0,1,1.264.654s-.128-.873-1.466-.95a5.751,5.751,0,0,0-.864-1,5.437,5.437,0,0,1,2.137.247,2.4,2.4,0,0,0-2.382-.449l-.935-.763a7.682,7.682,0,0,1,2.495.024,3.04,3.04,0,0,0-2.748-.2l-1.017-.611a9.234,9.234,0,0,1,2.382-.2,3.648,3.648,0,0,0-2.681.043l-.727-.327s1.1-.217,1.414-.25.339-.122.339-.122a3.8,3.8,0,0,0-2.055.229A8.967,8.967,0,0,1,1018.911,779.524Z" transform="translate(-966.795 137.13)"/>
      <ellipse id="Ellipse_25" data-name="Ellipse 25" class="cls-16" cx="6.22" cy="1.05" rx="6.22" ry="1.05" transform="translate(51.951 923.351)"/>
      <ellipse id="Ellipse_26" data-name="Ellipse 26" class="cls-16" cx="28.194" cy="4.4" rx="28.194" ry="4.4" transform="translate(64.431 913.222)"/>
      <ellipse id="Ellipse_27" data-name="Ellipse 27" class="cls-16" cx="31.681" cy="3.179" rx="31.681" ry="3.179" transform="translate(150.162 927.116)"/>
      <ellipse id="Ellipse_28" data-name="Ellipse 28" class="cls-16" cx="24.047" cy="1.484" rx="24.047" ry="1.484" transform="translate(253.78 927.348)"/>
      <path id="Path_200" data-name="Path 200" class="cls-17" d="M448.825,237.107V208.639h-3.876v-8.5h27.777v8.5h-3.876v28.469a28.227,28.227,0,1,1-20.03,0Z" transform="translate(-270.676 627.689)"/>
      <rect id="Rectangle_84" data-name="Rectangle 84" class="cls-18" width="19.982" height="0.382" transform="translate(178.106 836.44)"/>
      <path id="Path_201" data-name="Path 201" class="cls-15" d="M552.331,583.081s-16.956-.3-25.434-4.541-13.323-.455-12.867,2.12,2.875,7.568,12.564,8.181S552.331,583.081,552.331,583.081Z" transform="translate(-348.486 307.417)"/>
      <path id="Path_202" data-name="Path 202" class="cls-18" d="M552.331,583.081s-16.956-.3-25.434-4.541-13.323-.455-12.867,2.12,2.875,7.568,12.564,8.181S552.331,583.081,552.331,583.081Z" transform="translate(-348.486 307.417)"/>
      <path id="Path_203" data-name="Path 203" class="cls-15" d="M510.531,600.684s1.812,25.129-21.949,25.583-23.615-25.285-23.615-25.285,8.776,9.536,29.519,1.664C494.486,602.652,505.233,599.775,510.531,600.684Z" transform="translate(-299.425 287.093)"/>
      <path id="Path_204" data-name="Path 204" class="cls-18" d="M465.067,603.782c.474,5.789,3.552,23.91,23.529,23.527,19.583-.37,21.8-17.49,21.975-23.513.109,3.232.012,24.758-21.97,25.179-23.767.446-23.615-25.286-23.615-25.286S465.015,603.727,465.067,603.782Z" transform="translate(-299.448 284.383)"/>
      <ellipse id="Ellipse_29" data-name="Ellipse 29" class="cls-19" cx="6.33" cy="6.33" rx="6.33" ry="6.33" transform="translate(177.281 833.754)"/>
      <ellipse id="Ellipse_30" data-name="Ellipse 30" class="cls-19" cx="3.918" cy="3.918" rx="3.918" ry="3.918" transform="translate(176.078 810.843)"/>
      <ellipse id="Ellipse_31" data-name="Ellipse 31" class="cls-19" cx="3.918" cy="3.918" rx="3.918" ry="3.918" transform="translate(184.82 788.231)"/>
      <path id="Path_205" data-name="Path 205" class="cls-20" d="M490.059,518.487c.164,1.3.131,2.927-1.031,3.534.974-.509-3.019-6.277-2.453-7.455C487.787,512.052,489.91,517.279,490.059,518.487Z" transform="translate(-282.198 360.825)"/>
      <ellipse id="Ellipse_32" data-name="Ellipse 32" class="cls-19" cx="3.083" cy="3.083" rx="3.083" ry="3.083" transform="translate(189.969 816.216)"/>
      <ellipse id="Ellipse_33" data-name="Ellipse 33" class="cls-19" cx="4.706" cy="4.706" rx="4.706" ry="4.706" transform="translate(168.209 706.201)"/>
      <ellipse id="Ellipse_34" data-name="Ellipse 34" class="cls-19" cx="2.446" cy="2.446" rx="2.446" ry="2.446" transform="translate(184.033 695.801)"/>
      <path id="Path_206" data-name="Path 206" class="cls-17" d="M222.47,319.48H247.9v7.542h-3.875v58.842a8.841,8.841,0,1,1-17.683,0V327.022H222.47Z" transform="translate(3.566 456.251)"/>
      <path id="Path_207" data-name="Path 207" class="cls-15" d="M294.855,450.163s-6.293-2.248-8.045-.65c0,0,2.548,3.746,4.9,3.6S294.855,450.163,294.855,450.163Z" transform="translate(-53.155 344.204)"/>
      <path id="Path_208" data-name="Path 208" class="cls-18" d="M294.855,450.163s-6.293-2.248-8.045-.65c0,0,2.548,3.746,4.9,3.6S294.855,450.163,294.855,450.163Z" transform="translate(-53.155 344.204)"/>
      <path id="Path_209" data-name="Path 209" class="cls-15" d="M268.71,451.849v42.707a5.4,5.4,0,0,0,5.395,5.395h0a5.4,5.4,0,0,0,5.395-5.395V451.849a7,7,0,0,0-5.044.8C272.008,454.148,268.71,451.849,268.71,451.849Z" transform="translate(-35.052 341.875)"/>
      <rect id="Rectangle_85" data-name="Rectangle 85" class="cls-18" width="17.682" height="0.348" transform="translate(229.912 780.988)"/>
      <path id="Path_210" data-name="Path 210" class="cls-18" d="M274.1,722.4h0A5.394,5.394,0,0,0,279.5,717v2.7a5.4,5.4,0,0,1-5.395,5.394h0a5.4,5.4,0,0,1-5.395-5.394V717A5.4,5.4,0,0,0,274.1,722.4Z" transform="translate(-35.052 116.832)"/>
      <ellipse id="Ellipse_35" data-name="Ellipse 35" class="cls-19" cx="1.099" cy="1.099" rx="1.099" ry="1.099" transform="translate(237.952 787.332)"/>
      <ellipse id="Ellipse_36" data-name="Ellipse 36" class="cls-19" cx="0.7" cy="0.7" rx="0.7" ry="0.7" transform="translate(234.755 783.835)"/>
      <ellipse id="Ellipse_37" data-name="Ellipse 37" class="cls-19" cx="0.7" cy="0.7" rx="0.7" ry="0.7" transform="translate(239.65 782.437)"/>
      <path id="Path_211" data-name="Path 211" class="cls-20" d="M260.131,484.038c.167,1.327.134,2.987-1.052,3.606,1-.519-3.081-6.4-2.5-7.608C257.816,477.475,259.979,482.807,260.131,484.038Z" transform="translate(-13.907 318.411)"/>
      <ellipse id="Ellipse_38" data-name="Ellipse 38" class="cls-19" cx="5.371" cy="5.371" rx="5.371" ry="5.371" transform="translate(268.151 755.93)"/>
      <ellipse id="Ellipse_39" data-name="Ellipse 39" class="cls-19" cx="3.994" cy="3.994" rx="3.994" ry="3.994" transform="translate(285.642 748.097)"/>
      <ellipse id="Ellipse_40" data-name="Ellipse 40" class="cls-19" cx="2.076" cy="2.076" rx="2.076" ry="2.076" transform="translate(276.051 739.272)"/>
      <path id="Path_212" data-name="Path 212" class="cls-21" d="M796.9,335.475s4.687-23.311,2.895-26.212c0,0-.064-2.7.043-6.132v-.4a8.093,8.093,0,0,1-.983.574,7.939,7.939,0,0,1-5.365.693l1.426-1.582a2.629,2.629,0,0,0,.769-1.286,2.8,2.8,0,0,0-.305-1.389c-1.347-3.4-1.429-7.689,1.179-10.288,2.192-2.186,2.73-5.008,5.1-7,1.741-1.463,2.7-3.606,3.6-5.674a32.493,32.493,0,0,0,1.97-5.374c.342-1.45.476-2.95.947-4.367a5.56,5.56,0,0,1,2.715-3.426,9.967,9.967,0,0,0,1.475-.653,6.335,6.335,0,0,0,1.359-1.594c2.138-2.843,9.344-1.17,12.752-.015a7.179,7.179,0,0,1,2.519,1.4l-.03-.052-.086-.125a4.514,4.514,0,0,1,.953,1.063,27,27,0,0,1,1.118,2.544c.5,1.008,3.28,3.82,2.086,4.953a1.024,1.024,0,0,1-.278.183,2.489,2.489,0,0,1-1.408.141c.018.04.037.079.052.119a8.325,8.325,0,0,1,.611,3.148,8.52,8.52,0,0,1-8.593,8.443,8.709,8.709,0,0,1-2.632-.4c-.021.107-.04.214-.058.321a.277.277,0,0,1-.021.131h0l.15.211.025-.04,4.455,6.229c.681.476,4.6,3.316,4.816,5.445.232,2.33.464,5.06.464,5.06l.03.583a1.759,1.759,0,0,0,1.417.385c1.389-.229,1.389,5.118,1.389,5.118s.916.852,1.56.113,2.315,1.762,2.315,1.762l10.532.455h.241l.568-1.759a.742.742,0,0,1,.916-.47.594.594,0,0,1,.128.052l.037.024a.443.443,0,0,1,.073.052.21.21,0,0,1,.04.034.506.506,0,0,1,.058.058.461.461,0,0,1,.031.04l.018.018h0a.718.718,0,0,1,.1.635l-.489,1.508c2.031.409,4.11,1.56,2.415,4.736l8.587-1.585-2.779,2.33-14.352,2.962c.189.342.064.834-.528,1.527-2.55,3-7.21,3.811-9.081,4.025a16.065,16.065,0,0,1-1.832,3.112l.165,2.986s4.739,22.777,5.61,23.934a13.523,13.523,0,0,1-1.176-1.588c1.377,4.681,3.3,11.088,3.8,12.047.812,1.527,1.563,7.732.638,8.132a7.73,7.73,0,0,1-2.251-.024v.513l.052,19.467s-.232,11.943.406,13.079a11.134,11.134,0,0,1,.809,3.524s2.559,4.712,4.58,6.605l.046.04.064-.446s2.443,3.072,7.811,2.9c0,0,3.24,2.1-1.564,2.217s-10.935-.171-10.935-.171-4.275-6.538-7.869-5.686v4.947h-1.1v-4.99a4.507,4.507,0,0,1-1.954-2.965,3.588,3.588,0,0,1,1.28-3.325,2.137,2.137,0,0,0,.7-1.557l.04.034a2.257,2.257,0,0,1,.04-.305c.305-2.559.705-7.823-.687-11.726-1.909-5.347-2.489-12.792-1.1-17.229a39.389,39.389,0,0,0,1.1-4.315c.034-.186.067-.36.095-.525a21.683,21.683,0,0,0-2.818.577c-3.225.886-10.269,1.05-16.285,1-.015.165-.034.336-.052.51a18.526,18.526,0,0,1-.678,3.542c-.751,2.278-1.1,12.282-1.1,12.282s-.974,8.23-.443,11.582c.305,1.863.562,3.732.73,5.609v.037s1.594,4.547,2.748,7.023c.03.064.058.125.089.186a3.844,3.844,0,0,1,.916.2s1.56,3.127,3.124,3.64,1.041,2.217-2.489,1.591-8.855-1.136-8.855-1.136l-.232-3.185-1.084-1.356.275,3.176-1.157-.226.153-3.866-1.774-2.22s-2.138-1.905,1.041-5.655v.079c.034-.055.067-.11.1-.162v-.018c.525-.818.947-2.342.177-5.048-1.39-4.886-2.2-9.323-2.2-9.323s-3.106-11.882.629-17.507h-.168a9.49,9.49,0,0,0,.806-2.5c.018-.1.034-.211.052-.305a20.59,20.59,0,0,1-7.683-1.734C794.473,368.17,795.8,339.967,796.9,335.475Zm35.065-19.665v.055l.571.027Zm1.945.269a.61.61,0,0,1,.256.122,2.539,2.539,0,0,1,.446,1.167l.886-.2s.611-.131,1.527-.278l.424-.424C836.271,316.354,835.062,316.222,833.911,316.079Z" transform="translate(-731.871 498.142)"/>
      <path id="Path_213" data-name="Path 213" class="cls-22" d="M870.294,702.675l.339,4.025-1.133-.229.171-4.361Z" transform="translate(-797.554 208.089)"/>
      <path id="Path_214" data-name="Path 214" class="cls-23" d="M843.469,642.937c1.365,3.887.974,9.136.669,11.686-.113.944-.217,1.527-.217,1.527s2.04,4.648,2.211,4.819,6.01,3.732,6.01,3.732l4.08,2.379s4.138-1.814,2.138-2.443a3.013,3.013,0,0,1-1.069-.73c-1.979-1.887-4.486-6.581-4.486-6.581a11.308,11.308,0,0,0-.791-3.512c-.623-1.133-.4-13.033-.4-13.033l-.052-19.4V618.85l-7.762.058a17.83,17.83,0,0,1-.336,2.556,39.52,39.52,0,0,1-1.081,4.3C841.035,630.194,841.6,637.608,843.469,642.937Z" transform="translate(-744.892 248.732)"/>
      <path id="Path_215" data-name="Path 215" class="cls-18" d="M841.642,737.527s2.04,4.648,2.211,4.819,6.006,3.732,6.006,3.732l4.08,2.379s4.138-1.814,2.138-2.443a3.016,3.016,0,0,1-1.069-.73l-.177,1.24-1.362-.058L841.855,736C841.745,736.94,841.642,737.527,841.642,737.527Z" transform="translate(-742.61 167.356)"/>
      <path id="Path_216" data-name="Path 216" class="cls-22" d="M820.028,736.88l11.7,10.541,1.362.055.281-1.982s2.382,3.054,7.652,2.889c0,0,3.173,2.1-1.527,2.211s-10.712-.171-10.712-.171-4.193-6.517-7.7-5.665v4.929H820V744.7a4.481,4.481,0,0,1-1.912-2.953,3.613,3.613,0,0,1,1.252-3.316,2.138,2.138,0,0,0,.684-1.551Z" transform="translate(-720.856 166.744)"/>
      <path id="Path_217" data-name="Path 217" class="cls-23" d="M949.167,648.554c.754,2.7.342,4.214-.171,5.029v.018a9.29,9.29,0,0,0-1.365,3.325l-.049.257,5.326,7.762,2.889,1.133s4.648-1.585,3.8-2.04a4.186,4.186,0,0,1-.916-1.527c-1.139-2.443-2.7-6.981-2.7-6.981v-.04c-.162-1.872-.424-3.735-.715-5.591-.519-3.338.434-11.54.434-11.54s.339-9.97,1.078-12.239a18.94,18.94,0,0,0,.663-3.53c.153-1.426.186-2.589.186-2.589s-3.054-4.251-8.669.339a6.27,6.27,0,0,0-1.17,1.273c-3.875,5.5-.757,17.653-.757,17.653S947.808,643.683,949.167,648.554Z" transform="translate(-877.505 249.177)"/>
      <path id="Path_218" data-name="Path 218" class="cls-18" d="M945.841,737.454l5.326,7.762,2.889,1.133s4.648-1.585,3.8-2.04a4.183,4.183,0,0,1-.916-1.527,3.714,3.714,0,0,0-2.986,1.857l-2.492-.394s-3.289-6.462-4.025-6.855-.113-2.95-.113-2.95v-.65l-.058.07v.018a9.291,9.291,0,0,0-1.374,3.335Z" transform="translate(-875.763 168.891)"/>
      <path id="Path_219" data-name="Path 219" class="cls-22" d="M941.679,745.23a3.465,3.465,0,0,1,4.135-1.643s1.527,3.118,3.053,3.628,1.02,2.208-2.443,1.585-8.669-1.133-8.669-1.133l-.226-3.173-3.512-4.477s-2.1-1.9,1.02-5.637v.65s-.611,2.55.113,2.947,4.022,6.855,4.022,6.855Z" transform="translate(-863.668 168.481)"/>
      <path id="Path_220" data-name="Path 220" class="cls-18" d="M865.966,618.918a17.815,17.815,0,0,1-.336,2.556,35.724,35.724,0,0,1,8.1-.085V618.86Z" transform="translate(-767.047 248.726)"/>
      <path id="Path_221" data-name="Path 221" class="cls-18" d="M952.68,622.306s4.544.22,9.955.266c.153-1.426.186-2.59.186-2.59s-3.054-4.251-8.669.339a6.27,6.27,0,0,0-1.17,1.273A7.408,7.408,0,0,1,952.68,622.306Z" transform="translate(-882.716 249.191)"/>
      <path id="Path_222" data-name="Path 222" class="cls-22" d="M857.032,508.668s19.888.962,25.956-.736,12.068-.229,12.975-.626.168-6.571-.611-8.1-5.158-17-5.158-17L886,460.332l-4.422-1.221-.305-.085-7.7-2.138-5.646-1.557s-11.219,43.8-10.254,47.026a8.245,8.245,0,0,1,.162,3.8A9.523,9.523,0,0,1,857.032,508.668Z" transform="translate(-787.067 362.32)"/>
      <path id="Path_223" data-name="Path 223" class="cls-24" d="M840.38,422.72s3.97,4.251.965,6.629-4.987.229-4.987.229Z" transform="translate(-726.843 384.972)"/>
      <path id="Path_224" data-name="Path 224" class="cls-18" d="M840.38,422.72s3.97,4.251.965,6.629-4.987.229-4.987.229Z" transform="translate(-726.843 384.972)"/>
      <path id="Path_225" data-name="Path 225" class="cls-23" d="M920.48,313.409s.464.44,1.166,1.1c1,.931,2.477,2.3,3.789,3.441,1.832,1.582,3.313,2.748,2.779,1.75s-.434-2.715-.168-4.33l.055-.321a29.7,29.7,0,0,1,.879-3.509,60.572,60.572,0,0,0-4.559-5.289c-.611-.559-1.029-.8-1.05-.406a13.97,13.97,0,0,1-.916,2.95c-.018.037-.034.076-.049.113-.33.846-.7,1.728-1.026,2.483C920.883,312.544,920.48,313.409,920.48,313.409Z" transform="translate(-839.043 466.294)"/>
      <path id="Path_226" data-name="Path 226" class="cls-18" d="M920.46,308.9a8.428,8.428,0,0,0,5.643,6.462,29.14,29.14,0,0,1,.935-3.829s-5.524-7.139-5.61-5.7A15.893,15.893,0,0,1,920.46,308.9Z" transform="translate(-837.093 466.294)"/>
      <path id="Path_227" data-name="Path 227" class="cls-18" d="M891.7,341.435l-.714-1s-.473,2.889-2.217,1.615-1.832,9.588-1.832,9.588l1.875,27.965,13.515-.809-.382-13.512-1.527-6.8-3.783-9.9-2.266-3.27Z" transform="translate(-802.15 442.134)"/>
      <path id="Path_228" data-name="Path 228" class="cls-22" d="M886.91,352.187l1.692,25.284.177,2.678,7.536-.449.305-.018,5.683-.339-.382-13.515-1.527-6.8-3.783-9.9-2.275-3.273-2.678-3.866-.715-1.008s-.473,2.892-2.217,1.615l-.034-.024h0C886.992,341.478,886.91,352.187,886.91,352.187Z" transform="translate(-802.114 441.751)"/>
      <path id="Path_229" data-name="Path 229" class="cls-10" d="M838.866,392.29a2.073,2.073,0,0,0,2.04,1.191c1.362-.226,1.359,5.1,1.359,5.1s.916.849,1.527.113,2.266,1.756,2.266,1.756l10.312.455s-4.581,2.095-3.683,8.443c0,0-15.573-.965-16.093-2.443S838.866,392.29,838.866,392.29Z" transform="translate(-740.796 406.109)"/>
      <path id="Path_230" data-name="Path 230" class="cls-25" d="M838.866,392.29a2.073,2.073,0,0,0,2.04,1.191c1.362-.226,1.359,5.1,1.359,5.1s.916.849,1.527.113,2.266,1.756,2.266,1.756l10.312.455s-4.581,2.095-3.683,8.443c0,0-15.573-.965-16.093-2.443S838.866,392.29,838.866,392.29Z" transform="translate(-740.796 406.109)"/>
      <path id="Path_231" data-name="Path 231" class="cls-10" d="M714.6,375.14l-2.721,2.324-22.383,4.7,2.779-2.831Z" transform="translate(-586.56 435.214)"/>
      <path id="Path_232" data-name="Path 232" class="cls-10" d="M869.553,340.548a57.539,57.539,0,0,1,2.324,6.013c.739,2.113,1.359,3.97,1.359,3.97s1.444,9.408,2.18,11.106.339,8.336.339,8.336l2.748,16.377s1.246,8.443,3.17,13.485a24.34,24.34,0,0,0,4.083,7.35c-.852-1.151-5.5-23.852-5.5-23.852l-1.527-28.619s-.226-2.718-.455-5.042-4.816-5.5-4.816-5.5l-4.434-6.306C868.572,338.49,868.872,339.528,869.553,340.548Z" transform="translate(-780.039 443.912)"/>
      <path id="Path_233" data-name="Path 233" class="cls-23" d="M850.65,452.783s6.517-.281,9.689-4.08-7.31-1.527-7.31-1.527l-2.718.611Z" transform="translate(-749.573 368.451)"/>
      <path id="Path_234" data-name="Path 234" class="cls-18" d="M905.609,426.372a8.244,8.244,0,0,1,.162,3.8,53.956,53.956,0,0,0,14.74-1.423,33.169,33.169,0,0,0,5.158,3.231l2.04-25.275c1.3-3.4,1.811-21.25,1.811-21.25s-.116-.934-.305-2.333a.248.248,0,0,0-.015-.1c-.51-3.909-1.527-11.247-2.01-12.239-.681-1.359,2.095-4.984,2.095-4.984l-1.261-10.773-.153-1.3c-2.666-1.191-4.706-4.987-4.706-4.987l-1.563-2.748h0c-1.707-1.093-1.789,9.616-1.789,9.616l1.692,25.284-5.646-1.557S904.647,423.142,905.609,426.372Z" transform="translate(-835.021 438.324)"/>
      <path id="Path_235" data-name="Path 235" class="cls-10" d="M906.66,412.781c7.762,3.854,21.873.284,21.873.284a33.165,33.165,0,0,0,5.158,3.231l2.04-25.275c1.3-3.4,1.811-21.247,1.811-21.247s-1.643-13.317-2.321-14.676a2.182,2.182,0,0,1,.131-1.621,20.545,20.545,0,0,0,1.243-9.509l-.544-4.626-.153-1.3c-2.663-1.191-4.7-4.99-4.7-4.99l-1.42-2.486-2.614-4.58-1.237-2.168-.208.189-1.606,1.454s-.681.562-1.7,1.426c-2.223,1.872-6.064,5.17-8.043,7.185-1.744,1.78-2.293,8.691-2.443,13.894-.107,3.423-.043,6.107-.043,6.107,1.759,2.889-2.831,26.124-2.831,26.124C907.964,384.676,906.66,412.781,906.66,412.781Z" transform="translate(-843.383 453.671)"/>
      <path id="Path_236" data-name="Path 236" class="cls-25" d="M888.488,352.97s5.329,10.144,4.7,13.995-2.379,8.217-1.527,9.237a3.133,3.133,0,0,0,2.495,1.246,8.205,8.205,0,0,1,3.118,1.814c0,.171,2.095.171,3.97.965a24.776,24.776,0,0,0,4.648,1.246s5.384-.171,5.893.339,1.02,3.57-.058,6.007-2.266,4.251-3.173,4.58-6.629-1.585-11.274-2.04-9.711-4.125-9.711-4.125-5.551-1.985-6.516-5.329,1.191-21.7,1.191-21.7S883.908,350.646,888.488,352.97Z" transform="translate(-810.313 433.701)"/>
      <path id="Path_237" data-name="Path 237" class="cls-25" d="M886.249,350.189s5.326,10.141,4.7,13.995-2.379,8.217-1.527,9.237a3.133,3.133,0,0,0,2.495,1.246,8.189,8.189,0,0,1,3.115,1.814c0,.171,2.1.168,3.97.962a24.72,24.72,0,0,0,4.648,1.246s5.384-.168,5.893.342,1.02,3.57-.058,6.006-2.266,4.251-3.173,4.58-6.629-1.588-11.277-2.04-9.7-4.135-9.7-4.135-5.552-1.982-6.516-5.326,1.191-21.7,1.191-21.7S881.66,347.865,886.249,350.189Z" transform="translate(-807.389 435.632)"/>
      <path id="Path_238" data-name="Path 238" class="cls-10" d="M887.874,351.3s5.323,10.144,4.712,13.983-2.379,8.217-1.527,9.237a3.124,3.124,0,0,0,2.495,1.246,8.19,8.19,0,0,1,3.115,1.814c0,.171,2.1.171,3.97.965a24.714,24.714,0,0,0,4.648,1.246s5.384-.171,5.893.339,1.02,3.57-.058,6.006-2.266,4.251-3.173,4.58-6.629-1.585-11.277-2.04-9.689-4.135-9.689-4.135-5.551-1.985-6.516-5.329,1.191-21.7,1.191-21.7S883.284,348.974,887.874,351.3Z" transform="translate(-809.524 434.863)"/>
      <path id="Path_239" data-name="Path 239" class="cls-18" d="M949.154,440.706s4.251-.849,2.776.568-1.472,2.663-3.286,2.6S949.154,440.706,949.154,440.706Z" transform="translate(-870.691 372.653)"/>
      <path id="Path_240" data-name="Path 240" class="cls-18" d="M983.015,541.3s1.927,1.3-1.756,4.306S983.015,541.3,983.015,541.3Z" transform="translate(-911.75 302.602)"/>
      <path id="Path_241" data-name="Path 241" class="cls-18" d="M971.956,576.37c0,.171.678,6.232-1.872,7.762S971.956,576.37,971.956,576.37Z" transform="translate(-897.005 278.241)"/>
      <path id="Path_242" data-name="Path 242" class="cls-23" d="M824.406,420.48c2.052.07,6.495.7,4.193,4.993-2.037,3.8-5.457,1.261-7.372-.669A7.246,7.246,0,0,1,824.406,420.48Z" transform="translate(-708.997 386.528)"/>
      <path id="Path_243" data-name="Path 243" class="cls-23" d="M848.19,433.91Z" transform="translate(-736.177 377.199)"/>
      <path id="Path_244" data-name="Path 244" class="cls-23" d="M847.676,434.336c-.031-.027-.058-.058-.085-.086C847.618,434.278,847.645,434.308,847.676,434.336Z" transform="translate(-735.48 376.963)"/>
      <path id="Path_245" data-name="Path 245" class="cls-18" d="M911.54,327.481c2.18,1.49,4.009,2.748,4.364,3.011.98.721,2.849,4.971,4.04,7.139.959,1.747,4.064,2.2,5.237,2.305l-.141-1.286c-2.663-1.188-4.7-4.987-4.7-4.987l-5.27-9.234-1.814,1.643S912.56,326.619,911.54,327.481Z" transform="translate(-832.513 453.248)"/>
      <path id="Path_246" data-name="Path 246" class="cls-26" d="M911.54,326.889c2.18,1.487,4.009,2.748,4.364,3.008.98.724,2.849,4.971,4.04,7.139.959,1.747,4.064,2.2,5.237,2.306l-.153-1.3c-2.663-1.191-4.7-4.99-4.7-4.99l-5.271-9.234-1.814,1.643S912.56,326.012,911.54,326.889Z" transform="translate(-832.513 453.671)"/>
      <path id="Path_247" data-name="Path 247" class="cls-23" d="M887.346,291.038a8.153,8.153,0,0,0,.186,1.759,8.3,8.3,0,0,0,1.295,3.011,8.416,8.416,0,1,0-1.481-4.77Z" transform="translate(-804.123 482.288)"/>
      <path id="Path_248" data-name="Path 248" class="cls-18" d="M889.26,319.363a7.475,7.475,0,0,0,2.715-2.919,7.672,7.672,0,0,1,1.6-2.684,7.169,7.169,0,0,1,2.611-1,7.648,7.648,0,0,0,5.582-6.718c.043-1.463-.412-2.925-.2-4.373a4.822,4.822,0,0,1,.95-2.257,7,7,0,0,1,.818-.883c.4-.376.815-.739,1.176-1.139a4.437,4.437,0,0,0,.611-.809,4,4,0,0,0,.327-.754c.556-1.734.052-3.8.675-5.555a.294.294,0,0,1,.034-.095,1.814,1.814,0,0,1,1.38-1.3c.663-.049,1.24.5,1.875.754,1.331.516,2.77-.363,3.878-1.261s2.361-1.924,3.774-1.722a12.041,12.041,0,0,1,2.528,1.1,4.1,4.1,0,0,0,.611.171,8.416,8.416,0,0,0-16.224,3.136,8.145,8.145,0,0,0,.186,1.759c-.018.037-.034.076-.049.113-.33.846-.7,1.728-1.026,2.483l-1.606,1.454s-.681.562-1.7,1.426c-2.223,1.872-6.064,5.17-8.043,7.185C889.968,307.249,889.419,314.159,889.26,319.363Z" transform="translate(-820.728 482.277)"/>
      <path id="Path_249" data-name="Path 249" class="cls-27" d="M919.942,267.864c-.406-.828-.611-1.753-1.093-2.535a5.994,5.994,0,0,0-3.231-2.3c-3.335-1.148-10.382-2.819-12.486,0a6.36,6.36,0,0,1-1.331,1.594,10.248,10.248,0,0,1-1.444.647,5.523,5.523,0,0,0-2.66,3.414c-.458,1.411-.592,2.907-.916,4.354a32.1,32.1,0,0,1-1.93,5.353,14.914,14.914,0,0,1-3.524,5.655c-2.324,1.988-2.846,4.8-4.993,6.978-2.556,2.589-2.473,6.862-1.157,10.251a2.825,2.825,0,0,1,.305,1.386,2.651,2.651,0,0,1-.754,1.283l-1.4,1.576a7.851,7.851,0,0,0,8.578-3.97,7.683,7.683,0,0,1,1.6-2.681,7.152,7.152,0,0,1,2.611-1.008,7.648,7.648,0,0,0,5.582-6.718c.043-1.46-.412-2.925-.208-4.373a4.865,4.865,0,0,1,.947-2.229c.785-1.02,1.96-1.713,2.6-2.831,1.075-1.9.26-4.364,1.035-6.413a1.835,1.835,0,0,1,1.38-1.3c.666-.049,1.24.507,1.875.754,1.331.516,2.766-.363,3.875-1.261s2.364-1.921,3.774-1.719a12.049,12.049,0,0,1,2.532,1.1c.635.244,1.924.464,2.483-.073C923.164,271.672,920.443,268.869,919.942,267.864Z" transform="translate(-821.002 496.976)"/>
      <path id="Path_250" data-name="Path 250" class="cls-18" d="M890.946,306.871a7.671,7.671,0,0,1,1.6-2.684,7.112,7.112,0,0,1,2.611-1,7.648,7.648,0,0,0,5.582-6.718c.046-1.463-.412-2.925-.2-4.373a4.822,4.822,0,0,1,.95-2.257c.782-1.02,1.96-1.716,2.593-2.834,1.078-1.9.26-4.364,1.035-6.413a1.834,1.834,0,0,1,1.38-1.3c.666-.049,1.24.5,1.875.751,1.331.519,2.77-.36,3.875-1.258s2.364-1.921,3.777-1.722a12.288,12.288,0,0,1,2.528,1.1c.635.244,1.924.464,2.483-.073,1.17-1.13-1.551-3.933-2.043-4.935-.406-.828-.611-1.753-1.093-2.535l-.082-.128a4.488,4.488,0,0,1,.916,1.063,26.255,26.255,0,0,1,1.093,2.534c.492,1,3.212,3.808,2.043,4.935-.556.538-1.832.305-2.483.073a12.127,12.127,0,0,0-2.529-1.1c-1.411-.2-2.666.824-3.774,1.722s-2.547,1.777-3.875,1.261c-.638-.247-1.194-.806-1.875-.754a1.8,1.8,0,0,0-1.383,1.3c-.776,2.037.043,4.5-1.032,6.413-.635,1.115-1.814,1.811-2.6,2.831a4.822,4.822,0,0,0-.95,2.257c-.208,1.447.25,2.91.2,4.373a7.654,7.654,0,0,1-5.582,6.718,7.065,7.065,0,0,0-2.611,1.008,7.678,7.678,0,0,0-1.6,2.681,7.851,7.851,0,0,1-8.578,3.97l.656-.745A7.928,7.928,0,0,0,890.946,306.871Z" transform="translate(-820.832 490.716)"/>
      <path id="Path_251" data-name="Path 251" class="cls-18" d="M909.247,341.1a56.269,56.269,0,0,1,2.324,6.01c.831-.321,1.588-2.385,1.588-2.385l-4.425-6.306C908.27,339.043,908.569,340.081,909.247,341.1Z" transform="translate(-819.565 443.53)"/>
      <path id="Path_252" data-name="Path 252" class="cls-26" d="M909.813,340.548a57.548,57.548,0,0,1,2.324,6.013c.831-.321,1.585-2.385,1.585-2.385l-4.434-6.306C908.832,338.49,909.132,339.528,909.813,340.548Z" transform="translate(-820.299 443.912)"/>
      <path id="Path_253" data-name="Path 253" class="cls-28" d="M830.681,421.823l2.458-7.741a.726.726,0,0,0-.47-.916h0a.721.721,0,0,0-.916.47l-2.458,7.747.244,1.621Z" transform="translate(-715.391 391.634)"/>
      <path id="Path_254" data-name="Path 254" class="cls-29" d="M833.333,413.437h0a.727.727,0,0,0-.916.473l-2.458,7.741.186,1.221-.18.186-.244-1.621,2.458-7.741a.721.721,0,0,1,.916-.47h0a.708.708,0,0,1,.376.278A.7.7,0,0,0,833.333,413.437Z" transform="translate(-715.817 391.592)"/>
      <path id="Path_255" data-name="Path 255" class="cls-30" d="M732.65,384.3l-1.38-.44.2,1.331.043.29.4-.421Z" transform="translate(-617.361 429.157)"/>
      <path id="Path_256" data-name="Path 256" class="cls-31" d="M840.306,443.881a.348.348,0,0,0-.089-.073.125.125,0,0,0-.131,0,.307.307,0,0,0-.049.076.241.241,0,0,1-.177.119l.043.305Z" transform="translate(-725.749 370.336)"/>
      <path id="Path_257" data-name="Path 257" class="cls-23" d="M833.316,425.23s-4.932-.027-3.768,2.067a4.454,4.454,0,0,0,2.974,2.351Z" transform="translate(-715.556 383.228)"/>
    </g>
  </g>
</svg>
